<svg width="40" height="40" viewBox="0 0 40 40" fill="none" xmlns="http://www.w3.org/2000/svg">
<path d="M13.8167 10.4834C13.1167 10.4834 12.5667 9.91671 12.5667 9.23337V4.58337C12.5667 3.90004 13.1167 3.33337 13.8167 3.33337C14.5167 3.33337 15.0667 3.90004 15.0667 4.58337V9.21671C15.0667 9.91671 14.5167 10.4834 13.8167 10.4834Z" fill="white"/>
<path d="M26.1833 10.4834C25.4833 10.4834 24.9333 9.91671 24.9333 9.23337V4.58337C24.9333 3.88337 25.5 3.33337 26.1833 3.33337C26.8833 3.33337 27.4333 3.90004 27.4333 4.58337V9.21671C27.4333 9.91671 26.8833 10.4834 26.1833 10.4834Z" fill="white"/>
<path d="M35.8334 26.3667C35.8334 26.6167 35.7501 26.8667 35.5334 27.0834C33.1167 29.5167 28.8167 33.85 26.3501 36.3334C26.1334 36.5667 25.8501 36.6667 25.5667 36.6667C25.0167 36.6667 24.4834 36.2334 24.4834 35.6V29.7667C24.4834 27.3334 26.5501 25.3167 29.0834 25.3167C30.6667 25.3 32.8667 25.3 34.7501 25.3C35.4001 25.3 35.8334 25.8167 35.8334 26.3667Z" fill="white"/>
<path d="M35.8334 26.3667C35.8334 26.6167 35.7501 26.8667 35.5334 27.0834C33.1167 29.5167 28.8167 33.85 26.3501 36.3334C26.1334 36.5667 25.8501 36.6667 25.5667 36.6667C25.0167 36.6667 24.4834 36.2334 24.4834 35.6V29.7667C24.4834 27.3334 26.5501 25.3167 29.0834 25.3167C30.6667 25.3 32.8667 25.3 34.7501 25.3C35.4001 25.3 35.8334 25.8167 35.8334 26.3667Z" fill="white"/>
<path d="M32.6167 7.50004C31.5167 6.68337 29.9334 7.46671 29.9334 8.85004V9.01671C29.9334 10.9667 28.5334 12.7667 26.5834 12.9667C24.3334 13.2 22.4334 11.4334 22.4334 9.23337V7.50004C22.4334 6.58337 21.6834 5.83337 20.7667 5.83337H19.2334C18.3167 5.83337 17.5667 6.58337 17.5667 7.50004V9.01671C17.5667 10.4834 16.7834 11.85 15.5667 12.5167C15.5001 12.5667 15.4334 12.6 15.3667 12.6334C15.3501 12.6334 15.3501 12.65 15.3334 12.65C15.2167 12.7 15.1001 12.75 14.9667 12.8C14.9334 12.8167 14.9001 12.8167 14.8667 12.8334C14.6667 12.9 14.4501 12.95 14.2167 12.9667H14.2001C13.9501 13 13.6834 13 13.4334 12.9667H13.4167C13.1834 12.95 12.9667 12.9 12.7667 12.8334C12.6001 12.7834 12.4334 12.7167 12.2667 12.6334C10.9667 12.05 10.0667 10.75 10.0667 9.23337V8.85004C10.0667 7.56671 8.70008 6.80004 7.61675 7.35004C7.60008 7.36671 7.58341 7.36671 7.56675 7.38337H7.55008C7.43341 7.46671 7.33341 7.55004 7.21675 7.63337C7.03341 7.78337 6.85008 7.93337 6.68341 8.10004C6.56675 8.21671 6.45008 8.33337 6.35008 8.45004C6.21675 8.58337 6.10008 8.71671 5.98341 8.86671C5.90008 8.96671 5.80008 9.06671 5.73341 9.18337C5.65008 9.28337 5.58341 9.40004 5.51675 9.50004C5.50008 9.51671 5.48341 9.53337 5.46675 9.56671C5.31675 9.78337 5.18341 10.0334 5.06675 10.2667C5.03341 10.3 5.01675 10.3167 5.01675 10.35C4.91675 10.55 4.81675 10.75 4.75008 10.9667C4.70008 11.05 4.68341 11.1167 4.65008 11.2C4.61675 11.2667 4.60008 11.35 4.56675 11.4167C4.51675 11.5834 4.46675 11.7667 4.41675 11.95C4.35008 12.1834 4.30008 12.4334 4.26675 12.6834C4.23341 12.8667 4.21675 13.05 4.20008 13.25C4.18341 13.4834 4.16675 13.7167 4.16675 13.95V28.55C4.16675 33.0334 7.80008 36.6667 12.2834 36.6667H20.3167C21.2334 36.6667 21.9834 35.9167 21.9834 35V29.7667C21.9834 25.9334 25.1667 22.8167 29.0834 22.8167C29.9667 22.8 32.1167 22.8 34.1667 22.8C35.0834 22.8 35.8334 22.05 35.8334 21.1334V13.95C35.8334 11.3 34.5667 8.98337 32.6167 7.50004ZM18.5501 26.5167C18.4001 27.0167 17.9334 27.3667 17.3834 27.3667H11.3167C11.2334 27.3667 11.1667 27.3667 11.1001 27.3334C10.5001 27.25 10.0667 26.7334 10.0667 26.1167C10.0667 25.4167 10.6167 24.85 11.3167 24.85H17.3834C18.0667 24.85 18.6334 25.4167 18.6334 26.1167C18.6334 26.25 18.6167 26.4 18.5501 26.5167ZM23.1834 20.3334C23.0334 20.8334 22.5667 21.1834 22.0167 21.1834H11.3167C11.2334 21.1834 11.1667 21.1834 11.1001 21.15C10.5001 21.0667 10.0667 20.55 10.0667 19.9334C10.0667 19.2334 10.6167 18.6667 11.3167 18.6667H22.0167C22.7167 18.6667 23.2667 19.2334 23.2667 19.9334C23.2667 20.0667 23.2501 20.2167 23.1834 20.3334Z" fill="white"/>
</svg>
