<svg width="40" height="40" viewBox="0 0 40 40" fill="none" xmlns="http://www.w3.org/2000/svg">
<path d="M19.9999 3.33337C10.8166 3.33337 3.33325 10.8167 3.33325 20C3.33325 29.1834 10.8166 36.6667 19.9999 36.6667C29.1833 36.6667 36.6666 29.1834 36.6666 20C36.6666 10.8167 29.1833 3.33337 19.9999 3.33337ZM27.2499 25.95C27.0166 26.35 26.5999 26.5667 26.1666 26.5667C25.9499 26.5667 25.7333 26.5167 25.5333 26.3834L20.3666 23.3C19.0833 22.5334 18.1333 20.85 18.1333 19.3667V12.5334C18.1333 11.85 18.6999 11.2834 19.3833 11.2834C20.0666 11.2834 20.6333 11.85 20.6333 12.5334V19.3667C20.6333 19.9667 21.1333 20.85 21.6499 21.15L26.8166 24.2334C27.4166 24.5834 27.6166 25.35 27.2499 25.95Z" fill="white"/>
</svg>
