<svg width="50" height="50" viewBox="0 0 50 50" fill="none" xmlns="http://www.w3.org/2000/svg">
<path d="M25.0001 4.1665C13.5209 4.1665 4.16675 13.5207 4.16675 24.9998C4.16675 36.479 13.5209 45.8332 25.0001 45.8332C36.4792 45.8332 45.8334 36.479 45.8334 24.9998C45.8334 13.5207 36.4792 4.1665 25.0001 4.1665ZM28.7292 31.2498C29.3334 31.854 29.3334 32.854 28.7292 33.4582C28.4167 33.7707 28.0209 33.9165 27.6251 33.9165C27.2292 33.9165 26.8334 33.7707 26.5209 33.4582L19.1667 26.104C18.5626 25.4998 18.5626 24.4998 19.1667 23.8957L26.5209 16.5415C27.1251 15.9373 28.1251 15.9373 28.7292 16.5415C29.3334 17.1457 29.3334 18.1457 28.7292 18.7498L22.4792 24.9998L28.7292 31.2498Z" fill="#377AC9"/>
</svg>
