<svg width="50" height="50" viewBox="0 0 50 50" fill="none" xmlns="http://www.w3.org/2000/svg">
<path d="M25.0001 4.16669C13.5209 4.16669 4.16675 13.5209 4.16675 25C4.16675 36.4792 13.5209 45.8334 25.0001 45.8334C36.4792 45.8334 45.8334 36.4792 45.8334 25C45.8334 13.5209 36.4792 4.16669 25.0001 4.16669ZM28.7292 31.25C29.3334 31.8542 29.3334 32.8542 28.7292 33.4584C28.4167 33.7709 28.0209 33.9167 27.6251 33.9167C27.2292 33.9167 26.8334 33.7709 26.5209 33.4584L19.1667 26.1042C18.5626 25.5 18.5626 24.5 19.1667 23.8959L26.5209 16.5417C27.1251 15.9375 28.1251 15.9375 28.7292 16.5417C29.3334 17.1459 29.3334 18.1459 28.7292 18.75L22.4792 25L28.7292 31.25Z" fill="#289066"/>
</svg>
