<svg width="50" height="50" viewBox="0 0 50 50" fill="none" xmlns="http://www.w3.org/2000/svg">
<path d="M25.0001 4.16669C13.5209 4.16669 4.16675 13.5209 4.16675 25C4.16675 36.4792 13.5209 45.8334 25.0001 45.8334C36.4792 45.8334 45.8334 36.4792 45.8334 25C45.8334 13.5209 36.4792 4.16669 25.0001 4.16669ZM30.8126 26.1042L23.4584 33.4584C23.1459 33.7709 22.7501 33.9167 22.3542 33.9167C21.9584 33.9167 21.5626 33.7709 21.2501 33.4584C20.6459 32.8542 20.6459 31.8542 21.2501 31.25L27.5001 25L21.2501 18.75C20.6459 18.1459 20.6459 17.1459 21.2501 16.5417C21.8542 15.9375 22.8542 15.9375 23.4584 16.5417L30.8126 23.8959C31.4376 24.5 31.4376 25.5 30.8126 26.1042Z" fill="#289066"/>
</svg>
