<svg width="50" height="50" viewBox="0 0 50 50" fill="none" xmlns="http://www.w3.org/2000/svg">
<path d="M25.0001 4.1665C13.5209 4.1665 4.16675 13.5207 4.16675 24.9998C4.16675 36.479 13.5209 45.8332 25.0001 45.8332C36.4792 45.8332 45.8334 36.479 45.8334 24.9998C45.8334 13.5207 36.4792 4.1665 25.0001 4.1665ZM30.8126 26.104L23.4584 33.4582C23.1459 33.7707 22.7501 33.9165 22.3542 33.9165C21.9584 33.9165 21.5626 33.7707 21.2501 33.4582C20.6459 32.854 20.6459 31.854 21.2501 31.2498L27.5001 24.9998L21.2501 18.7498C20.6459 18.1457 20.6459 17.1457 21.2501 16.5415C21.8542 15.9373 22.8542 15.9373 23.4584 16.5415L30.8126 23.8957C31.4376 24.4998 31.4376 25.4998 30.8126 26.104Z" fill="#377AC9"/>
</svg>
