<svg width="50" height="50" viewBox="0 0 50 50" fill="none" xmlns="http://www.w3.org/2000/svg">
<path d="M33.7292 4.16675H16.2709C8.68758 4.16675 4.16675 8.68758 4.16675 16.2709V33.7084C4.16675 41.3126 8.68758 45.8334 16.2709 45.8334H33.7084C41.2917 45.8334 45.8126 41.3126 45.8126 33.7292V16.2709C45.8334 8.68758 41.3126 4.16675 33.7292 4.16675ZM24.1876 30.9167C24.1876 33.1876 22.4167 34.9584 20.1459 34.9584H17.0626C14.8334 34.9584 13.0209 33.1459 13.0209 30.9167V25.3542C13.0209 18.9376 14.4167 17.5001 18.1459 15.2917C18.3959 15.1459 18.6667 15.0834 18.9376 15.0834C19.4792 15.0834 20.0001 15.3542 20.2917 15.8542C20.7292 16.6042 20.4792 17.5626 19.7501 18.0001C17.2292 19.4584 16.3542 20.0001 16.1876 23.7709H20.1667C22.4376 23.7709 24.2084 25.5417 24.2084 27.8126V30.9167H24.1876ZM36.9792 30.9167C36.9792 33.1876 35.2084 34.9584 32.9376 34.9584H29.8334C27.6042 34.9584 25.7917 33.1459 25.7917 30.9167V25.3542C25.7917 18.9376 27.1876 17.5001 30.9167 15.2917C31.1667 15.1459 31.4376 15.0834 31.7084 15.0834C32.2501 15.0834 32.7709 15.3542 33.0626 15.8542C33.5001 16.6042 33.2501 17.5626 32.5209 18.0001C30.0001 19.5001 29.1251 20.0417 28.9584 23.8126H32.9376C35.2084 23.8126 36.9792 25.5834 36.9792 27.8542V30.9167Z" fill="white"/>
</svg>
