<svg width="40" height="40" viewBox="0 0 40 40" fill="none" xmlns="http://www.w3.org/2000/svg">
<path d="M21.25 26.5333H22.3333C23.4167 26.5333 24.3167 25.5667 24.3167 24.4C24.3167 22.95 23.8 22.6667 22.95 22.3667L21.2667 21.7833V26.5333H21.25Z" fill="white"/>
<path d="M19.95 3.16665C10.75 3.19999 3.30003 10.6833 3.33336 19.8833C3.3667 29.0833 10.85 36.5333 20.05 36.5C29.25 36.4667 36.7 28.9833 36.6667 19.7833C36.6334 10.5833 29.15 3.14999 19.95 3.16665ZM23.7667 20C25.0667 20.45 26.8167 21.4167 26.8167 24.4C26.8167 26.9667 24.8 29.0333 22.3334 29.0333H21.25V30C21.25 30.6833 20.6834 31.25 20 31.25C19.3167 31.25 18.75 30.6833 18.75 30V29.0333H18.15C15.4167 29.0333 13.2 26.7333 13.2 23.9C13.2 23.2167 13.7667 22.65 14.45 22.65C15.1334 22.65 15.7 23.2167 15.7 23.9C15.7 25.35 16.8 26.5333 18.15 26.5333H18.75V20.9L16.2334 20C14.9334 19.55 13.1834 18.5833 13.1834 15.6C13.1834 13.0333 15.2 10.9667 17.6667 10.9667H18.75V9.99999C18.75 9.31665 19.3167 8.74999 20 8.74999C20.6834 8.74999 21.25 9.31665 21.25 9.99999V10.9667H21.85C24.5834 10.9667 26.8 13.2667 26.8 16.1C26.8 16.7833 26.2334 17.35 25.55 17.35C24.8667 17.35 24.3 16.7833 24.3 16.1C24.3 14.65 23.2 13.4667 21.85 13.4667H21.25V19.1L23.7667 20Z" fill="white"/>
<path d="M15.7 15.6167C15.7 17.0667 16.2166 17.35 17.0666 17.65L18.75 18.2333V13.4667H17.6666C16.5833 13.4667 15.7 14.4333 15.7 15.6167Z" fill="white"/>
</svg>
