<svg width="40" height="40" viewBox="0 0 40 40" fill="none" xmlns="http://www.w3.org/2000/svg">
<path d="M30.9001 6.86673L21.7334 3.4334C20.7834 3.0834 19.2334 3.0834 18.2834 3.4334L9.11675 6.86673C7.35008 7.5334 5.91675 9.60006 5.91675 11.4834V24.9834C5.91675 26.3334 6.80008 28.1167 7.88341 28.9167L17.0501 35.7667C18.6667 36.9834 21.3167 36.9834 22.9334 35.7667L32.1001 28.9167C33.1834 28.1001 34.0667 26.3334 34.0667 24.9834V11.4834C34.0834 9.60006 32.6501 7.5334 30.9001 6.86673ZM25.8001 16.2001L18.6334 23.3667C18.3834 23.6167 18.0667 23.7334 17.7501 23.7334C17.4334 23.7334 17.1167 23.6167 16.8667 23.3667L14.2001 20.6667C13.7167 20.1834 13.7167 19.3834 14.2001 18.9001C14.6834 18.4167 15.4834 18.4167 15.9667 18.9001L17.7667 20.7001L24.0501 14.4167C24.5334 13.9334 25.3334 13.9334 25.8167 14.4167C26.3001 14.9001 26.3001 15.7167 25.8001 16.2001Z" fill="white"/>
</svg>
