<svg width="40" height="40" viewBox="0 0 40 40" fill="none" xmlns="http://www.w3.org/2000/svg">
<path d="M35.0667 22.1333L33.5334 20.6333L20.6167 33.5333L22.1667 35.0833C23.4667 36.3833 24.8167 37.0333 26.15 37.0333C27.4834 37.0333 28.8334 36.3833 30.1334 35.0833L35.0667 30.15C37.7167 27.4833 37.7167 24.8 35.0667 22.1333Z" fill="white"/>
<path d="M17.8167 4.8834C15.2 2.26673 12.45 2.26673 9.83335 4.8834L4.88335 9.81673C2.28335 12.4334 2.28335 15.1834 4.88335 17.8001L6.41668 19.3334L19.3334 6.41673L17.8167 4.8834Z" fill="white"/>
<path d="M36.3501 6.56665C34.1667 12.0167 29.1834 19.1333 24.4334 23.7833C23.7501 19.4833 20.3167 16.1167 15.9834 15.5167C20.6501 10.75 27.8167 5.69999 33.2834 3.49999C34.2501 3.13332 35.2167 3.41665 35.8167 4.01665C36.4501 4.64999 36.7501 5.59999 36.3501 6.56665Z" fill="white"/>
<path d="M22.9666 25.1499C22.6333 25.4333 22.3 25.7166 21.9666 25.9833L18.9833 28.3666C18.9833 28.3166 18.9666 28.2499 18.9666 28.1833C18.7333 26.3999 17.9 24.7499 16.55 23.3999C15.1833 22.0333 13.4833 21.1999 11.6166 20.9666C11.5666 20.9666 11.5 20.9499 11.45 20.9499L13.8666 17.8999C14.1 17.5999 14.35 17.3166 14.6166 17.0166L15.75 17.1666C19.3333 17.6666 22.2166 20.4833 22.7833 24.0499L22.9666 25.1499Z" fill="white"/>
<path d="M17.3833 29.3668C17.3833 31.2001 16.6833 32.9501 15.35 34.2668C14.3333 35.3001 12.9667 36.0001 11.3 36.2001L7.21668 36.6501C4.98335 36.9001 3.06668 34.9834 3.31668 32.7334L3.76668 28.6334C4.16668 24.9834 7.21668 22.6501 10.45 22.5834C10.7667 22.5668 11.1167 22.5834 11.45 22.6168C12.8667 22.8001 14.2333 23.4501 15.3833 24.5834C16.5 25.7001 17.1333 27.0168 17.3167 28.4001C17.35 28.7334 17.3833 29.0501 17.3833 29.3668Z" fill="white"/>
</svg>
