<svg width="40" height="40" viewBox="0 0 40 40" fill="none" xmlns="http://www.w3.org/2000/svg">
<path d="M35.4166 30.7834L32.6666 31.4334C32.0499 31.5834 31.5666 32.05 31.4332 32.6667L30.8499 35.1167C30.5332 36.45 28.8332 36.8667 27.9499 35.8167L22.9666 30.0834C22.5666 29.6167 22.7832 28.8834 23.3832 28.7334C26.3332 28.0167 28.9832 26.3667 30.9332 24.0167C31.2499 23.6334 31.8166 23.5834 32.1666 23.9334L35.8666 27.6334C37.1332 28.9 36.6832 30.4834 35.4166 30.7834Z" fill="white"/>
<path d="M4.50003 30.7834L7.25003 31.4334C7.86669 31.5834 8.35003 32.05 8.48336 32.6667L9.06669 35.1167C9.38336 36.45 11.0834 36.8667 11.9667 35.8167L16.95 30.0834C17.35 29.6167 17.1334 28.8834 16.5334 28.7334C13.5834 28.0167 10.9334 26.3667 8.98336 24.0167C8.66669 23.6334 8.10003 23.5834 7.75003 23.9334L4.05003 27.6334C2.78336 28.9 3.23336 30.4834 4.50003 30.7834Z" fill="white"/>
<path d="M19.9999 3.33337C13.5499 3.33337 8.33325 8.55004 8.33325 15C8.33325 17.4167 9.04992 19.6334 10.2833 21.4834C12.0833 24.15 14.9333 26.0334 18.2499 26.5167C18.8166 26.6167 19.3999 26.6667 19.9999 26.6667C20.5999 26.6667 21.1833 26.6167 21.7499 26.5167C25.0666 26.0334 27.9166 24.15 29.7166 21.4834C30.9499 19.6334 31.6666 17.4167 31.6666 15C31.6666 8.55004 26.4499 3.33337 19.9999 3.33337ZM25.0999 14.6334L23.7166 16.0167C23.4833 16.25 23.3499 16.7 23.4333 17.0334L23.8333 18.75C24.1499 20.1 23.4333 20.6334 22.2333 19.9167L20.5666 18.9334C20.2666 18.75 19.7666 18.75 19.4666 18.9334L17.7999 19.9167C16.5999 20.6167 15.8833 20.1 16.1999 18.75L16.5999 17.0334C16.6666 16.7167 16.5499 16.25 16.3166 16.0167L14.8999 14.6334C14.0833 13.8167 14.3499 13 15.4833 12.8167L17.2666 12.5167C17.5666 12.4667 17.9166 12.2 18.0499 11.9334L19.0333 9.96671C19.5666 8.90004 20.4333 8.90004 20.9666 9.96671L21.9499 11.9334C22.0833 12.2 22.4333 12.4667 22.7499 12.5167L24.5333 12.8167C25.6499 13 25.9166 13.8167 25.0999 14.6334Z" fill="white"/>
</svg>
