<svg width="41" height="40" viewBox="0 0 41 40" fill="none" xmlns="http://www.w3.org/2000/svg">
<path d="M33.6666 11.25C36.1979 11.25 38.2499 9.19801 38.2499 6.66671C38.2499 4.1354 36.1979 2.08337 33.6666 2.08337C31.1353 2.08337 29.0833 4.1354 29.0833 6.66671C29.0833 9.19801 31.1353 11.25 33.6666 11.25Z" fill="#E34040"/>
<path d="M32.0668 13.5834C29.4501 13.0167 27.3167 10.8834 26.7501 8.26671C26.5334 7.25004 26.5167 6.26671 26.7001 5.33337C26.9167 4.30004 26.1501 3.33337 25.0834 3.33337H12.0001C7.40008 3.33337 3.66675 7.06671 3.66675 11.6667V23.25C3.66675 27.85 7.40008 31.5834 12.0001 31.5834H14.5001C14.9667 31.5834 15.5667 31.8834 15.8334 32.25L18.3334 35.5667C19.4334 37.0334 21.2334 37.0334 22.3334 35.5667L24.8334 32.25C25.1501 31.8334 25.6334 31.5834 26.1667 31.5834H28.6834C33.2834 31.5834 37.0001 27.8667 37.0001 23.2667V15.25C37.0001 14.2 36.0334 13.4334 35.0001 13.6334C34.0667 13.8 33.0834 13.8 32.0668 13.5834ZM13.6667 20C12.7334 20 12.0001 19.25 12.0001 18.3334C12.0001 17.4167 12.7334 16.6667 13.6667 16.6667C14.5834 16.6667 15.3334 17.4167 15.3334 18.3334C15.3334 19.25 14.6001 20 13.6667 20ZM20.3334 20C19.4001 20 18.6667 19.25 18.6667 18.3334C18.6667 17.4167 19.4001 16.6667 20.3334 16.6667C21.2501 16.6667 22.0001 17.4167 22.0001 18.3334C22.0001 19.25 21.2667 20 20.3334 20ZM27.0001 20C26.0667 20 25.3334 19.25 25.3334 18.3334C25.3334 17.4167 26.0667 16.6667 27.0001 16.6667C27.9167 16.6667 28.6667 17.4167 28.6667 18.3334C28.6667 19.25 27.9334 20 27.0001 20Z" fill="white"/>
</svg>
