<svg width="80" height="40" viewBox="0 0 80 40" fill="none" xmlns="http://www.w3.org/2000/svg">
<g clip-path="url(#clip0_817_1114)">
<path d="M22.6776 39.8583C21.1947 40.1133 19.759 40.0283 18.3328 39.7544C16.5288 39.4144 14.7437 39.0082 12.9302 38.7343C11.1168 38.4604 9.08607 38.3188 7.20649 39.0177C6.63034 39.2349 6.54533 39.1405 6.54533 38.536C6.54533 35.9858 6.55478 33.4451 6.53589 30.8949C6.53589 30.4699 6.7059 30.281 7.07426 30.1393C8.6327 29.5726 10.2384 29.5443 11.8629 29.6954C13.2136 29.8182 14.5264 30.1204 15.8488 30.3754C16.2266 30.451 16.3399 30.621 16.3305 30.9799C16.3116 32 16.406 33.0295 16.3021 34.0496C16.1982 35.0696 16.661 35.8158 17.275 36.5336C18.6162 38.0732 20.288 39.0744 22.2242 39.6694L22.6303 39.8016C22.6398 39.7827 22.6492 39.8111 22.6776 39.8583Z" fill="white"/>
<path d="M24.8028 36.8264C24.8028 37.4404 24.8028 38.0543 24.8028 38.6682C24.8028 38.9138 24.7178 39.0555 24.425 38.9988C23.5561 38.8194 22.6588 38.7343 21.8182 38.4038C20.4203 37.8371 19.1924 37.0248 18.2007 35.863L20.9587 36.1842C21.3617 36.2458 21.7695 36.2711 22.1771 36.2597C22.9421 36.2125 23.6694 36.4392 24.425 36.4392C24.6895 36.4392 24.8028 36.5809 24.8028 36.8264Z" fill="white"/>
<path d="M7.89609 21.667C6.66823 21.667 5.43092 21.6009 4.2125 21.7331C2.99409 21.8653 1.98346 21.8276 0.868939 21.8465C0.217228 21.8559 -0.141686 21.412 0.0377706 20.8925C0.115445 20.6798 0.270643 20.5044 0.472245 20.4014C1.60566 19.8158 1.9079 18.739 2.18181 17.6151C2.72018 15.4238 3.28688 13.2325 3.8347 11.0413C4.28807 9.2278 4.75088 7.42379 5.17591 5.60089C5.25088 5.30252 5.25929 4.99131 5.20052 4.68934C5.14176 4.38736 5.01727 4.10202 4.83588 3.85354C4.28807 3.07904 4.51475 2.59734 5.44981 2.38011C5.79821 2.29015 6.15738 2.24883 6.51711 2.25732C8.66115 2.34233 10.7863 2.02119 12.9303 2.06842C13.1509 2.06332 13.3716 2.06963 13.5915 2.08731C13.8654 2.12509 14.1204 2.22898 14.2149 2.51234C14.2693 2.65328 14.2813 2.80707 14.2494 2.95475C14.2175 3.10244 14.1431 3.23757 14.0354 3.34351C13.8897 3.48735 13.7281 3.6141 13.5537 3.72131C12.8453 4.17468 12.4675 4.84528 12.2786 5.62922C11.9292 7.06488 11.5797 8.49109 11.2113 9.92674C11.1358 10.2195 11.2302 10.3518 11.5136 10.3707H11.9386C13.2609 10.3234 14.5832 10.229 15.9055 10.2573C16.2833 10.2668 16.5195 10.144 16.6139 9.73784C17.0106 8.09439 17.4451 6.45094 17.8323 4.8075C17.9551 4.28802 17.6718 3.82521 17.379 3.40962C16.9162 2.73902 17.0578 2.27621 17.8229 2.0023C18.0131 1.93017 18.2145 1.89181 18.4179 1.88896C20.0708 1.88896 21.7143 1.68117 23.3672 1.66228C24.17 1.66228 24.9728 1.65283 25.7757 1.66228C26.2196 1.67172 26.7485 1.67172 26.8996 2.16287C27.0508 2.65401 26.6446 2.98459 26.2951 3.19238C25.3412 3.75909 24.9823 4.63749 24.765 5.667C24.4156 7.26322 23.9622 8.83111 23.5655 10.4084C22.9327 12.9303 22.2999 15.4616 21.667 17.9834C21.5254 18.5596 21.6671 19.0696 22.0165 19.5419C22.366 20.0141 22.4793 20.2125 22.2432 20.628C22.0071 21.0436 21.582 21.1759 21.1192 21.1947L14.6116 21.4025C14.111 21.4214 13.6104 21.5348 13.1098 21.3553C12.6092 21.1759 12.392 20.6942 12.8075 20.2313C12.9518 20.0624 13.1206 19.9159 13.3081 19.7969C14.0354 19.3624 14.3943 18.7012 14.5832 17.8984C14.9138 16.5289 15.2633 15.1593 15.6222 13.7898C15.8016 13.1192 15.7166 13.0153 15.046 12.987C13.6293 12.9208 12.2314 13.2325 10.8146 13.1759C10.5313 13.1664 10.3707 13.327 10.314 13.582C9.92679 15.0838 9.52065 16.5855 9.18063 18.1062C9.02006 18.8335 9.05784 19.5607 9.59621 20.203C10.0024 20.6942 9.79456 21.2609 9.16174 21.4498C8.75281 21.5839 8.32635 21.6571 7.89609 21.667Z" fill="white"/>
<path d="M29.6104 4.71306C29.6691 4.45157 29.6734 4.1808 29.623 3.91759C29.5726 3.65437 29.4687 3.40431 29.3176 3.18295C29.2006 3.01575 29.1113 2.83077 29.0531 2.63514C28.8926 2.06843 29.2704 1.67174 29.9315 1.57729C31.6033 1.34116 33.294 1.40728 34.9752 1.39783C35.8064 1.38839 36.6281 1.14281 37.4593 1.22782C37.5726 1.23726 37.6765 1.21837 37.7899 1.23726C38.1677 1.28449 38.5833 1.36005 38.7155 1.76619C38.8477 2.17233 38.5644 2.49346 38.2621 2.72014C37.6765 3.17351 37.0531 3.58909 36.8454 4.36359C36.6376 5.13809 36.5053 5.63868 36.3542 6.28095C36.0331 7.57493 35.7308 8.8689 35.4097 10.1629C34.9941 11.8536 34.5785 13.5442 34.1629 15.2349C33.9646 16.0283 33.7851 16.8217 33.5868 17.6151C33.4451 18.1912 33.5396 18.7107 33.9079 19.1735C34.5785 20.0047 34.1441 20.6281 33.1995 20.8075C33.1218 20.8224 33.0426 20.8287 32.9634 20.8264C31.0555 20.7508 29.1665 21.072 27.2586 21.0248H25.2751C24.9162 21.0248 24.6045 20.902 24.4723 20.5525C24.34 20.203 24.5667 19.9575 24.7651 19.7119C24.8713 19.5951 24.9957 19.4962 25.1334 19.4191C25.9929 18.9185 26.3235 18.0968 26.5408 17.1806C26.9469 15.4521 27.3908 13.7426 27.8064 12.0141C28.2786 10.0968 28.732 8.16997 29.2043 6.25261C29.3459 5.74258 29.516 5.23254 29.6104 4.71306Z" fill="white"/>
<path d="M57.9741 35.0036C56.3738 35.7062 54.934 36.7283 53.7427 38.0071C53.7427 37.0437 53.7427 36.0709 53.7427 35.1075C53.7427 34.8241 53.941 34.7296 54.1866 34.7485C55.0178 34.7958 55.8489 34.7108 56.6801 34.8808C57.0957 34.9563 57.5302 34.9374 57.9741 35.0036Z" fill="white"/>
<path d="M40.1039 1.66233C40.2456 1.26564 40.6234 1.22786 41.0106 1.19952C43.3058 1.02951 45.6009 1.14285 47.8961 0.935057C48.2267 0.935057 48.5572 0.916167 48.8878 0.935057C49.7284 1.01062 50.0685 1.70956 49.5962 2.40849C49.4829 2.5785 49.3506 2.73907 49.2278 2.89964C48.7367 3.53246 48.9067 4.22195 49.0484 4.92089C49.2562 5.93152 49.4545 6.95159 49.6529 7.96221C49.8512 8.97284 49.9929 9.74734 50.1629 10.6446C50.1912 10.7674 50.2101 10.9091 50.3707 10.928C50.5313 10.9469 50.5785 10.7957 50.6352 10.6918C51.098 9.80401 51.5419 8.89728 52.033 8.01888C53.0626 6.16764 53.8843 4.20306 55.0649 2.42738C55.6033 1.60566 56.2928 0.925612 57.2656 0.670595C58.7579 0.2739 60.3069 0.387242 61.0626 1.85123C61.9315 3.53246 61.1759 6.00708 59.0885 6.50767C58.1535 6.73435 57.379 6.49822 56.6895 5.92207C56.3683 5.65761 56.1983 5.6765 56.0094 6.02597C54.4699 8.8595 52.9398 11.693 51.3624 14.4982C50.4463 16.1228 49.6812 17.8418 48.5384 19.3436C48.1228 19.8819 47.6033 20.2881 46.8949 20.3447C45.8087 20.4297 45.2609 20.0897 44.8264 19.0885C44.4675 18.2668 44.3353 17.3695 44.1558 16.5006C43.7591 14.6588 43.2963 12.8359 42.9469 10.9846C42.5974 9.1334 42.0779 7.15938 41.7473 5.23258C41.5868 4.27862 41.2184 3.42856 40.425 2.80519C40.0283 2.50294 39.9528 2.08736 40.1039 1.66233Z" fill="white"/>
<path d="M23.9715 29.8465C23.9621 30.1865 23.7637 30.3471 23.4332 30.3566C23.1026 30.366 23.0648 30.0638 23.0554 29.7899C23.0459 29.5159 23.027 29.2515 23.4143 29.2893C23.8015 29.327 23.981 29.4687 23.9715 29.8465Z" fill="white"/>
<path d="M28.5621 29.2325C28.1465 29.2137 28.2787 29.5442 28.2315 29.7992C28.3259 29.9315 28.1087 30.2715 28.496 30.2432C28.8832 30.2148 29.1477 30.1393 29.1382 29.7142C29.1288 29.2892 28.8643 29.242 28.5621 29.2325ZM28.5621 29.2325C28.1465 29.2137 28.2787 29.5442 28.2315 29.7992C28.3259 29.9315 28.1087 30.2715 28.496 30.2432C28.8832 30.2148 29.1477 30.1393 29.1382 29.7142C29.1288 29.2892 28.8643 29.242 28.5621 29.2325ZM28.5621 29.2325C28.1465 29.2137 28.2787 29.5442 28.2315 29.7992C28.3259 29.9315 28.1087 30.2715 28.496 30.2432C28.8832 30.2148 29.1477 30.1393 29.1382 29.7142C29.1288 29.2892 28.8643 29.242 28.5621 29.2325ZM35.9576 30.1771C35.8915 29.667 35.4192 29.1381 34.9942 29.0909H34.947C34.1725 29.0342 33.7097 29.5442 33.7097 30.4793C33.738 30.7343 33.6908 31.0366 33.8702 31.301C34.1819 31.7449 34.6919 31.9716 35.117 31.8299C35.7592 31.6127 36.0615 30.9988 35.9576 30.1771ZM35.9576 30.1771C35.8915 29.667 35.4192 29.1381 34.9942 29.0909H34.947C34.1725 29.0342 33.7097 29.5442 33.7097 30.4793C33.738 30.7343 33.6908 31.0366 33.8702 31.301C34.1819 31.7449 34.6919 31.9716 35.117 31.8299C35.7592 31.6127 36.0615 30.9988 35.9576 30.1771ZM28.5621 29.2325C28.1465 29.2137 28.2787 29.5442 28.2315 29.7992C28.3259 29.9315 28.1087 30.2715 28.496 30.2432C28.8832 30.2148 29.1477 30.1393 29.1382 29.7142C29.1288 29.2892 28.8643 29.242 28.5621 29.2325ZM28.5621 29.2325C28.1465 29.2137 28.2787 29.5442 28.2315 29.7992C28.3259 29.9315 28.1087 30.2715 28.496 30.2432C28.8832 30.2148 29.1477 30.1393 29.1382 29.7142C29.1288 29.2892 28.8643 29.242 28.5621 29.2325ZM35.9576 30.1771C35.8915 29.667 35.4192 29.1381 34.9942 29.0909H34.947C34.1725 29.0342 33.7097 29.5442 33.7097 30.4793C33.738 30.7343 33.6908 31.0366 33.8702 31.301C34.1819 31.7449 34.6919 31.9716 35.117 31.8299C35.7592 31.6127 36.0615 30.9988 35.9576 30.1771ZM35.9576 30.1771C35.8915 29.667 35.4192 29.1381 34.9942 29.0909H34.947C34.1725 29.0342 33.7097 29.5442 33.7097 30.4793C33.738 30.7343 33.6908 31.0366 33.8702 31.301C34.1819 31.7449 34.6919 31.9716 35.117 31.8299C35.7592 31.6127 36.0615 30.9988 35.9576 30.1771ZM28.5621 29.2325C28.1465 29.2137 28.2787 29.5442 28.2315 29.7992C28.3259 29.9315 28.1087 30.2715 28.496 30.2432C28.8832 30.2148 29.1477 30.1393 29.1382 29.7142C29.1288 29.2892 28.8643 29.242 28.5621 29.2325ZM61.1949 29.9031C61.1949 28.5808 61.1855 27.2585 61.1949 25.9362C61.1949 25.5962 61.0816 25.4073 60.7226 25.3695C60.0993 25.3034 59.4853 25.1806 58.862 25.1239C58.0025 25.0389 57.1524 24.9445 56.2929 24.8689C53.6388 24.6422 50.9847 24.7083 48.3212 24.8311C46.9706 24.8878 45.6294 25.02 44.2882 25.1239C43.3625 25.19 42.4369 25.2562 41.5208 25.3412C39.6128 25.5112 37.7144 25.719 35.8159 25.9456C33.3035 26.2384 30.7628 26.229 28.2409 26.4179C25.9836 26.5785 23.7167 26.3518 21.4594 26.2479C21.346 26.2479 21.2421 26.2101 21.1288 26.2007C20.0143 26.144 18.9186 25.889 17.8136 25.7662C17.5113 25.7379 17.3885 25.7756 17.398 26.1157C17.4106 28.7729 17.4137 31.4332 17.4074 34.0968C17.4074 34.4746 17.5963 34.654 17.9269 34.7013C19.1359 34.8713 20.3543 35.1168 21.5727 35.1641C23.8584 35.2585 26.1347 35.523 28.4487 35.2585C30.0638 35.0791 31.7167 35.1735 33.3413 35.0318C34.7486 34.909 36.1654 34.8052 37.5727 34.6729C39.15 34.5312 40.7274 34.3612 42.2952 34.1723C43.1264 34.0684 43.967 34.1345 44.7888 34.0212C46.1736 33.8411 47.5673 33.737 48.9635 33.7095C50.8808 33.6717 52.7982 33.5867 54.7156 33.6528C56.6329 33.719 58.6825 33.974 60.6565 34.2479C61.1099 34.314 61.2043 34.1912 61.2043 33.7756C61.1854 32.4817 61.1949 31.1877 61.1949 29.8937V29.9031ZM25.3885 29.9693C25.3543 30.3397 25.1941 30.6872 24.9345 30.9536C24.6749 31.2201 24.3317 31.3894 23.9623 31.4332C23.0556 31.5277 23.0556 31.5277 23.0556 32.4817C23.0556 33.2373 23.0084 33.3034 22.4416 33.3128C21.8749 33.3223 21.7994 33.2562 21.7899 32.6706C21.771 31.4427 21.8277 30.2148 21.7238 28.9964C21.7049 28.3069 21.7994 28.203 22.4983 28.2125C23.1973 28.2219 23.7167 28.118 24.3118 28.3541C24.9068 28.5903 25.4641 29.1948 25.3885 29.9693ZM31.0839 32.9822C31.0367 33.1239 30.8856 33.105 30.7628 33.1239C30.0072 33.2467 29.4216 33.02 29.0154 32.3305C28.8832 32.1039 28.6943 31.7072 28.4487 31.7922C28.2032 31.8772 28.3543 32.2928 28.3448 32.5667C28.3259 33.1334 28.2315 33.2278 27.6365 33.2373C27.0414 33.2467 27.0131 33.1523 27.0131 32.6044C27.0131 32.0566 27.0131 31.3105 27.0131 30.6682H26.9942C26.9942 29.9882 27.0036 29.3175 26.9942 28.6375C26.9847 28.3164 27.1264 28.1558 27.4381 28.1841C28.0426 28.2314 28.6282 27.948 29.261 28.1464C29.8938 28.3447 30.2527 28.5525 30.4228 29.1286C30.5928 29.7048 30.4889 30.3943 29.96 30.8477C29.6766 31.0932 29.6955 31.2255 29.9316 31.4805C30.1677 31.7355 30.6306 32.2833 30.98 32.6894C31.0272 32.7745 31.1217 32.8595 31.0839 32.9728V32.9822ZM34.7958 33.1239C33.3791 33.1239 32.3023 31.9905 32.2929 30.4793C32.2834 28.9681 33.3791 27.8347 34.8336 27.8347C36.2882 27.8347 37.4121 29.0625 37.4027 30.4982C37.3953 31.1898 37.1173 31.851 36.6282 32.34C36.1392 32.8291 35.478 33.1071 34.7864 33.1145L34.7958 33.1239ZM40.6896 32.595C40.4131 32.7638 40.0964 32.8554 39.7726 32.8604C39.4487 32.8654 39.1293 32.7835 38.8478 32.6233C38.4039 32.3872 38.64 32.0755 38.725 31.7733C38.81 31.471 38.9706 31.4144 39.2823 31.5183C39.7451 31.6788 39.9906 31.471 40.019 30.9704C40.0284 30.7626 40.019 30.5643 40.019 30.3565C40.0757 29.6765 39.8395 29.0153 39.849 28.3447C39.8584 27.6741 39.934 27.6835 40.7463 27.6552C41.2185 27.6363 41.1713 27.9763 41.1902 28.2691C41.2468 29.2231 41.313 30.1771 41.3507 31.1405C41.3696 31.7166 41.2374 32.2739 40.6801 32.5856L40.6896 32.595ZM45.7238 32.4439C45.0343 32.51 44.3448 32.5289 43.6553 32.5761C43.3248 32.595 43.1736 32.4439 43.1548 32.1039C43.0729 30.7878 42.9816 29.4718 42.8808 28.1558C42.8525 27.7308 42.9659 27.4946 43.4475 27.5135C43.9293 27.5324 44.4298 27.2774 44.836 27.353H45.3649C45.6483 27.3435 45.8655 27.4191 45.8938 27.7497C45.9222 28.0802 45.9599 28.3825 45.5349 28.5053C45.2751 28.5668 45.0085 28.5953 44.7415 28.5903C44.4771 28.5997 44.222 28.6092 44.2315 28.9775C44.2409 29.3459 44.5148 29.3364 44.7699 29.3364H45.3838C45.7238 29.3175 45.9127 29.4498 45.9127 29.8181C45.9127 30.1865 45.8655 30.4321 45.4121 30.4321C45.1666 30.4321 44.921 30.5171 44.6754 30.5643C44.4298 30.6115 44.3921 30.7815 44.4015 30.9893C44.4 31.0335 44.4079 31.0776 44.4247 31.1185C44.4415 31.1594 44.4668 31.1963 44.499 31.2267C44.5312 31.2571 44.5694 31.2802 44.6112 31.2947C44.6531 31.3091 44.6975 31.3145 44.7415 31.3105C45.0249 31.3105 45.3082 31.2916 45.5821 31.2632C45.8561 31.2349 46.0733 31.3482 46.0733 31.6694C46.0733 31.9905 46.2244 32.3966 45.7144 32.4439H45.7238ZM51.6837 31.7922C51.2788 32.0388 50.8051 32.1482 50.333 32.1039C48.6896 32.2266 47.4901 30.9232 47.4901 29.5537C47.4995 27.9102 49.2657 26.5312 50.8714 26.9468L51.0509 27.0035C51.7498 27.2018 51.8726 27.693 51.372 28.2219C51.2398 28.3636 51.0886 28.3164 50.9375 28.288C50.6011 28.1974 50.2475 28.1909 49.908 28.2691C49.228 28.4486 48.869 28.987 48.9352 29.7331C49.0013 30.4793 49.4735 30.8193 50.1725 30.8477C50.5021 30.8786 50.8341 30.8233 51.1359 30.6871C51.6742 30.4226 51.7026 30.9515 51.9009 31.2066C52.0993 31.4616 51.9198 31.6505 51.6837 31.7922ZM56.5857 27.2396C56.5573 27.6363 56.2551 27.693 55.9906 27.7119C55.5373 27.7402 55.4901 27.9386 55.5089 28.3541C55.5467 29.2703 55.7073 30.1676 55.7545 31.0743C55.7829 31.5844 55.5184 31.6883 55.1028 31.7166C54.6872 31.7449 54.4983 31.6222 54.47 31.1782C54.4039 30.2809 54.2716 29.3931 54.215 28.5053C54.1866 28.0425 54.0166 27.8724 53.5821 27.9291C53.1477 27.9858 52.9965 27.7969 52.9493 27.3813C52.9021 26.9657 53.0532 26.7296 53.4594 26.7201C54.2622 26.6824 55.065 26.654 55.6506 26.5124C56.4723 26.4935 56.6235 26.654 56.5857 27.2396ZM34.9942 29.0909H34.947C34.1725 29.0342 33.7097 29.5442 33.7097 30.4793C33.738 30.7343 33.6908 31.0366 33.8702 31.301C34.1819 31.7449 34.6919 31.9716 35.117 31.8299C35.7498 31.6127 36.0615 30.9988 35.9481 30.1771C35.8915 29.6576 35.4192 29.1381 34.9942 29.0909ZM28.5621 29.2325C28.1465 29.2137 28.2787 29.5442 28.2315 29.7992C28.3259 29.9315 28.1087 30.2715 28.496 30.2432C28.8832 30.2148 29.1477 30.1393 29.1382 29.7142C29.1288 29.2892 28.8643 29.242 28.5621 29.2325ZM28.5621 29.2325C28.1465 29.2137 28.2787 29.5442 28.2315 29.7992C28.3259 29.9315 28.1087 30.2715 28.496 30.2432C28.8832 30.2148 29.1477 30.1393 29.1382 29.7142C29.1288 29.2892 28.8643 29.242 28.5621 29.2325ZM35.9576 30.1771C35.8915 29.667 35.4192 29.1381 34.9942 29.0909H34.947C34.1725 29.0342 33.7097 29.5442 33.7097 30.4793C33.738 30.7343 33.6908 31.0366 33.8702 31.301C34.1819 31.7449 34.6919 31.9716 35.117 31.8299C35.7592 31.6127 36.0615 30.9988 35.9576 30.1771ZM35.9576 30.1771C35.8915 29.667 35.4192 29.1381 34.9942 29.0909H34.947C34.1725 29.0342 33.7097 29.5442 33.7097 30.4793C33.738 30.7343 33.6908 31.0366 33.8702 31.301C34.1819 31.7449 34.6919 31.9716 35.117 31.8299C35.7592 31.6127 36.0615 30.9988 35.9576 30.1771ZM28.5621 29.2325C28.1465 29.2137 28.2787 29.5442 28.2315 29.7992C28.3259 29.9315 28.1087 30.2715 28.496 30.2432C28.8832 30.2148 29.1477 30.1393 29.1382 29.7142C29.1288 29.2892 28.8643 29.242 28.5621 29.2325ZM28.5621 29.2325C28.1465 29.2137 28.2787 29.5442 28.2315 29.7992C28.3259 29.9315 28.1087 30.2715 28.496 30.2432C28.8832 30.2148 29.1477 30.1393 29.1382 29.7142C29.1288 29.2892 28.8643 29.242 28.5621 29.2325ZM35.9576 30.1771C35.8915 29.667 35.4192 29.1381 34.9942 29.0909H34.947C34.1725 29.0342 33.7097 29.5442 33.7097 30.4793C33.738 30.7343 33.6908 31.0366 33.8702 31.301C34.1819 31.7449 34.6919 31.9716 35.117 31.8299C35.7592 31.6127 36.0615 30.9988 35.9576 30.1771ZM35.9576 30.1771C35.8915 29.667 35.4192 29.1381 34.9942 29.0909H34.947C34.1725 29.0342 33.7097 29.5442 33.7097 30.4793C33.738 30.7343 33.6908 31.0366 33.8702 31.301C34.1819 31.7449 34.6919 31.9716 35.117 31.8299C35.7592 31.6127 36.0615 30.9988 35.9576 30.1771ZM28.5621 29.2325C28.1465 29.2137 28.2787 29.5442 28.2315 29.7992C28.3259 29.9315 28.1087 30.2715 28.496 30.2432C28.8832 30.2148 29.1477 30.1393 29.1382 29.7142C29.1288 29.2892 28.8643 29.242 28.5621 29.2325Z" fill="white"/>
<path d="M71.8678 38.6494C71.8678 39.0838 71.7167 39.3011 71.3105 39.4428C69.941 39.9245 68.5431 40.0567 67.0886 39.9622C65.3884 39.8489 63.745 39.4239 62.0827 39.1122C60.8831 38.8949 59.6836 38.6683 58.4652 38.5549C57.2749 38.4547 56.0762 38.544 54.9138 38.8194C54.8829 38.8326 54.8485 38.8351 54.816 38.8266C54.7835 38.818 54.7548 38.7989 54.7344 38.7722C54.7533 38.5549 54.9516 38.451 55.0838 38.2999C56.34 36.8831 57.9646 36.0709 59.7686 35.6458C60.3974 35.5033 61.0462 35.4713 61.686 35.5514C62.2243 35.6175 62.3377 35.5608 62.3377 34.9941C62.3377 33.6435 62.2999 32.2928 62.2905 30.9327C62.281 30.2716 62.3093 30.2527 62.9611 30.3849C64.5195 30.6777 66.0591 31.0366 67.6553 31.0744C68.8548 31.1027 70.0354 30.9894 71.1877 30.6305C71.2962 30.6077 71.4034 30.5793 71.5089 30.5455C71.7922 30.4227 71.8772 30.5455 71.8772 30.8099C71.8772 31.3105 71.8772 31.8206 71.8772 32.3212C71.8583 34.4369 71.8489 36.5431 71.8678 38.6494Z" fill="white"/>
<path d="M78.772 4.55252C78.7059 4.86421 78.6209 5.16645 78.5265 5.4687C78.3187 6.12041 77.9031 6.4321 77.2042 6.46988C76.288 6.52655 75.8063 6.30931 75.5324 5.62926C75.2585 4.94922 75.1073 4.41085 74.909 3.80636C74.5973 2.86185 74.3423 2.64461 73.3694 2.72017C72.5666 2.77684 71.7638 2.79573 70.9609 2.79573C70.5926 2.79573 70.3942 2.92796 70.3092 3.31521C69.9692 4.75087 69.6009 6.17708 69.2514 7.61273C69.1192 8.16055 69.2136 8.23611 69.7614 8.28334C70.0582 8.31396 70.358 8.27625 70.638 8.17311C70.9179 8.06997 71.1706 7.90413 71.3765 7.6883C71.7921 7.28216 72.1794 6.84768 72.68 6.53599C72.9916 6.33765 73.3128 6.20541 73.7 6.23375C74.3895 6.28098 74.8145 6.84768 74.6445 7.50884C74.2919 8.86264 73.9362 10.2133 73.5772 11.5608C73.3789 12.3069 72.9444 12.7225 72.3116 12.7886C71.6788 12.8548 71.1782 12.4392 70.8948 11.8347C70.7909 11.608 70.6493 11.3908 70.5454 11.1641C70.3376 10.7296 69.9881 10.5502 69.5253 10.5407C68.5997 10.5218 68.5052 10.5879 68.2219 11.7308C67.8346 13.2703 67.4757 14.8099 67.1073 16.3589C66.9562 16.9823 67.0318 17.0767 67.6835 17.0767H68.4391V17.0484C68.7413 17.0484 69.0341 17.0578 69.3364 17.0484C69.7785 17.0374 70.2126 16.9272 70.6065 16.7262C71.0005 16.5251 71.3443 16.2382 71.6127 15.8866C72.1699 15.1877 72.765 14.5171 73.3694 13.8465C73.9739 13.1759 74.399 12.9209 75.1546 12.9209C76.2219 12.9209 76.6941 13.4687 76.4674 14.5171C76.3163 15.2255 76.1274 15.915 75.9385 16.6139C75.8157 17.0673 75.7307 17.5301 75.5702 17.9835C75.2301 18.9657 74.5029 19.4569 73.5395 19.4663C71.7449 19.4852 69.9598 19.6741 68.1652 19.693C65.4639 19.7214 62.7532 19.863 60.0519 19.9575C59.5229 19.9764 58.9846 20.0519 58.4556 19.8914C57.9267 19.7308 57.7378 19.2963 58.0873 18.7957C58.1671 18.6595 58.2769 18.5432 58.4084 18.4557C59.4474 17.9173 59.8063 16.9539 60.0613 15.8961C60.4674 14.1865 60.9019 12.4864 61.3364 10.7768C61.9125 8.46279 62.5076 6.15819 63.0648 3.83469C63.216 3.22076 63.1687 2.60683 62.7815 2.03068C62.2053 1.17118 62.3942 0.736702 63.386 0.472239C63.5834 0.418661 63.7861 0.386987 63.9905 0.377788L69.0908 0.245556C71.7354 0.169996 74.399 0.0755446 77.053 -1.62207e-05C77.4466 -0.0100493 77.8399 0.0280128 78.2242 0.113325C78.9232 0.264447 79.3199 0.821708 79.3482 1.54898C79.386 2.59739 78.9798 3.56079 78.772 4.55252Z" fill="white"/>
</g>
<defs>
<clipPath id="clip0_817_1114">
<rect width="79.3483" height="40" fill="white"/>
</clipPath>
</defs>
</svg>
