<svg width="83" height="48" viewBox="0 0 83 48" fill="none" xmlns="http://www.w3.org/2000/svg">
<g clip-path="url(#clip0_30_33456)">
<path d="M26.5967 45.3889C25.1472 45.7927 23.7101 45.8534 22.2634 45.7253C20.4341 45.5696 18.6169 45.3462 16.7849 45.2572C14.9529 45.1682 12.9181 45.2328 11.1187 46.1184C10.5675 46.3928 10.4734 46.3074 10.4122 45.706C10.1541 43.169 9.9064 40.6403 9.62954 38.1051C9.58653 37.6823 9.73657 37.4772 10.0887 37.2989C11.582 36.5774 13.1766 36.3867 14.8083 36.3727C16.1645 36.3581 17.5014 36.5259 18.8428 36.6458C19.2263 36.6828 19.3563 36.8404 19.3832 37.1985C19.4677 38.2152 19.6658 39.2299 19.6657 40.2552C19.6655 41.2806 20.2015 41.9761 20.885 42.6281C22.3752 44.024 24.1399 44.8509 26.1265 45.2469L26.544 45.3373C26.5515 45.3176 26.5638 45.3448 26.5967 45.3889Z" fill="white"/>
<path d="M28.4043 42.1575C28.4664 42.7683 28.5286 43.3791 28.5907 43.9899C28.6155 44.2342 28.5453 44.3837 28.2482 44.357C27.3655 44.2664 26.4642 44.2726 25.5943 44.0288C24.1462 43.6065 22.8423 42.9227 21.738 41.8672L24.5146 41.9076C24.9218 41.9281 25.3301 41.912 25.7345 41.8595C26.4909 41.7351 27.2374 41.887 27.9892 41.8105C28.2524 41.7838 28.3795 41.9132 28.4043 42.1575Z" fill="white"/>
<path d="M10.0489 28.787C8.82728 28.9112 7.58953 28.9707 6.39065 29.2255C5.19176 29.4804 4.18242 29.5451 3.07544 29.6767C2.42797 29.752 2.02595 29.3467 2.15193 28.8117C2.20769 28.5923 2.34435 28.4021 2.53451 28.2792C3.60294 27.5819 3.79469 26.4801 3.95348 25.3341C4.26739 23.0996 4.60948 20.8623 4.93279 18.6268C5.20035 16.7768 5.47827 14.9352 5.71668 13.0786C5.76109 12.7742 5.73796 12.4638 5.64893 12.1693C5.55991 11.8748 5.40717 11.6035 5.20155 11.3747C4.57813 10.6596 4.75492 10.1574 5.66328 9.84666C6.00081 9.72191 6.35399 9.64445 6.71276 9.61649C8.85457 9.48408 10.9365 8.94952 13.0745 8.77952C13.2934 8.75213 13.5136 8.73607 13.7342 8.73141C14.0105 8.74127 14.2748 8.81883 14.3974 9.09117C14.4658 9.22588 14.4934 9.37766 14.4766 9.52781C14.4598 9.67797 14.3995 9.81993 14.303 9.93623C14.1726 10.0941 14.0246 10.2365 13.862 10.3608C13.203 10.8836 12.895 11.589 12.7864 12.388C12.584 13.8517 12.3806 15.3059 12.1594 16.7715C12.1138 17.0704 12.2212 17.1924 12.505 17.1825L12.9279 17.1395C14.2387 16.9587 15.5448 16.7309 16.8633 16.6253C17.2402 16.5964 17.4627 16.4504 17.5156 16.0368C17.7439 14.3616 18.0099 12.6826 18.2289 11.0084C18.2985 10.4792 17.9697 10.0474 17.6364 9.66363C17.108 9.0433 17.2022 8.56853 17.9356 8.2186C18.1176 8.12759 18.3141 8.06905 18.5162 8.04562C20.1607 7.87835 21.7749 7.5053 23.4175 7.31923C24.2163 7.23798 25.0141 7.14733 25.8138 7.07548C26.2565 7.03995 26.7827 6.98642 26.9828 7.45975C27.1828 7.93308 26.8122 8.30306 26.4855 8.54516C25.5937 9.2055 25.3255 10.1157 25.2136 11.1619C25.0274 12.7853 24.735 14.391 24.4999 16.0004C24.1255 18.5734 23.752 21.1557 23.3776 23.7286C23.2949 24.3162 23.4875 24.8092 23.883 25.2437C24.2785 25.6782 24.4113 25.864 24.2184 26.3014C24.0256 26.7387 23.6161 26.9133 23.1575 26.9789L16.7037 27.8442C16.2076 27.9137 15.721 28.0771 15.2048 27.9492C14.6885 27.8214 14.4237 27.3641 14.7903 26.8616C14.9168 26.6789 15.0698 26.5162 15.2444 26.3787C15.924 25.8729 16.2142 25.1788 16.3209 24.361C16.5112 22.965 16.7204 21.5671 16.9389 20.1683C17.0496 19.483 16.9545 19.3882 16.2844 19.4279C14.8681 19.5055 13.5088 19.9571 12.0935 20.0441C11.8106 20.0633 11.6671 20.2393 11.6365 20.4988C11.4032 22.032 11.1511 23.5672 10.9666 25.1145C10.8805 25.8542 10.9917 26.574 11.5923 27.1584C12.0461 27.606 11.8967 28.1908 11.2862 28.4428C10.8929 28.6176 10.476 28.7336 10.0489 28.787Z" fill="white"/>
<path d="M29.9378 9.72248C29.9697 9.4564 29.9465 9.18659 29.8698 8.92982C29.793 8.67305 29.6643 8.4348 29.4916 8.22986C29.3583 8.07536 29.2507 7.90037 29.1731 7.71163C28.956 7.16408 29.2917 6.73119 29.94 6.57031C31.5794 6.1662 33.2682 6.06088 34.94 5.88134C35.766 5.78782 36.5587 5.46035 37.3943 5.4608C37.508 5.45873 37.6095 5.42942 37.7242 5.43674C38.1049 5.44549 38.526 5.4786 38.6986 5.86928C38.8713 6.25995 38.6219 6.60811 38.3441 6.86422C37.8074 7.37452 37.2292 7.85106 37.1008 8.64261C36.9724 9.43416 36.8915 9.94556 36.8062 10.5998C36.6176 11.9197 36.4478 13.2376 36.2593 14.5574C36.0169 16.2815 35.7745 18.0055 35.5321 19.7296C35.415 20.539 35.3168 21.3464 35.1997 22.1558C35.117 22.7434 35.2636 23.2506 35.6769 23.6738C36.4282 24.4328 36.059 25.097 35.1375 25.3711C35.0616 25.3938 34.9834 25.4081 34.9044 25.4138C32.9985 25.5317 31.1515 26.0424 29.2485 26.1885L27.275 26.3892C26.9179 26.4255 26.5954 26.3349 26.4285 26.0006C26.2615 25.6663 26.4622 25.3991 26.6347 25.1347C26.7286 25.0077 26.8423 24.8967 26.9716 24.8061C27.7761 24.2211 28.0218 23.3701 28.1453 22.4367C28.3745 20.676 28.6431 18.9303 28.8817 17.1686C29.1575 15.2133 29.4136 13.2505 29.6895 11.2952C29.7788 10.7735 29.8964 10.2489 29.9378 9.72248Z" fill="white"/>
<path d="M61.2234 36.987C59.7023 37.848 58.3731 39.0105 57.3173 40.4033C57.2198 39.4449 57.1214 38.477 57.0239 37.5186C56.9952 37.2367 57.183 37.1226 57.4292 37.1166C58.261 37.0794 59.0793 36.9107 59.9235 36.9958C60.3446 37.0289 60.775 36.9661 61.2234 36.987Z" fill="white"/>
<path d="M40.0697 5.6254C40.1706 5.21641 40.5426 5.14059 40.9251 5.07321C43.1914 4.67179 45.4864 4.55227 47.749 4.11327C48.0779 4.07981 48.4049 4.02756 48.7357 4.0129C49.5797 4.003 49.9888 4.66394 49.5896 5.40708C49.4941 5.58769 49.3787 5.76082 49.2728 5.93299C48.8482 6.61226 49.0871 7.28101 49.2988 7.96202C49.6078 8.94643 49.9084 9.94119 50.208 10.9266C50.5076 11.9119 50.727 12.6681 50.9869 13.5436C51.0275 13.6629 51.0607 13.8019 51.2223 13.8044C51.384 13.807 51.4157 13.6519 51.4616 13.5428C51.8322 12.6126 52.1821 11.6656 52.5819 10.7421C53.4189 8.79613 54.0376 6.75847 55.0326 4.87242C55.4851 4.00043 56.1023 3.2541 57.0444 2.90193C58.4891 2.35625 60.0417 2.31224 60.9417 3.69225C61.9764 5.27691 61.475 7.81529 59.4488 8.52456C58.5414 8.84471 57.7469 8.68818 57.0026 8.18476C56.6563 7.95416 56.4891 7.99015 56.3365 8.35695C55.0915 11.3317 53.8558 14.3056 52.5704 17.256C51.8232 18.9649 51.236 20.7525 50.2509 22.3623C49.8919 22.9399 49.4161 23.3966 48.717 23.5246C47.6449 23.7191 47.0655 23.4363 46.5319 22.4842C46.0916 21.703 45.8693 20.8237 45.6028 19.9774C45.0217 18.1852 44.3768 16.4185 43.8417 14.6121C43.3067 12.8058 42.5901 10.8945 42.0662 9.011C41.8099 8.07819 41.3574 7.26978 40.5049 6.7299C40.0796 6.46935 39.9624 6.06355 40.0697 5.6254Z" fill="white"/>
<path d="M26.8711 35.2976C26.8961 35.6368 26.715 35.8166 26.387 35.8595C26.0591 35.9023 25.9909 35.6054 25.9538 35.3339C25.9167 35.0623 25.8711 34.8012 26.2602 34.7996C26.6493 34.7979 26.8422 34.9207 26.8711 35.2976Z" fill="white"/>
<path d="M31.376 34.2222C30.9606 34.2455 31.1256 34.561 31.1045 34.8195C31.2118 34.9415 31.0301 35.3017 31.4125 35.2344C31.7949 35.167 32.0504 35.065 31.998 34.6432C31.9456 34.2213 31.6777 34.201 31.376 34.2222ZM31.376 34.2222C30.9606 34.2455 31.1256 34.561 31.1045 34.8195C31.2118 34.9415 31.0301 35.3017 31.4125 35.2344C31.7949 35.167 32.0504 35.065 31.998 34.6432C31.9456 34.2213 31.6777 34.201 31.376 34.2222ZM31.376 34.2222C30.9606 34.2455 31.1256 34.561 31.1045 34.8195C31.2118 34.9415 31.0301 35.3017 31.4125 35.2344C31.7949 35.167 32.0504 35.065 31.998 34.6432C31.9456 34.2213 31.6777 34.201 31.376 34.2222ZM38.8298 34.4134C38.7124 33.9127 38.189 33.4343 37.7613 33.4303L37.7143 33.4351C36.938 33.4571 36.5291 34.0114 36.6238 34.9416C36.6778 35.1925 36.6614 35.4979 36.8667 35.7429C37.2217 36.153 37.7521 36.3269 38.1607 36.1429C38.7777 35.8618 39.0163 35.2204 38.8298 34.4134ZM38.8298 34.4134C38.7124 33.9127 38.189 33.4343 37.7613 33.4303L37.7143 33.4351C36.938 33.4571 36.5291 34.0114 36.6238 34.9416C36.6778 35.1925 36.6614 35.4979 36.8667 35.7429C37.2217 36.153 37.7521 36.3269 38.1607 36.1429C38.7777 35.8618 39.0163 35.2204 38.8298 34.4134ZM31.376 34.2222C30.9606 34.2455 31.1256 34.561 31.1045 34.8195C31.2118 34.9415 31.0301 35.3017 31.4125 35.2344C31.7949 35.167 32.0504 35.065 31.998 34.6432C31.9456 34.2213 31.6777 34.201 31.376 34.2222ZM31.376 34.2222C30.9606 34.2455 31.1256 34.561 31.1045 34.8195C31.2118 34.9415 31.0301 35.3017 31.4125 35.2344C31.7949 35.167 32.0504 35.065 31.998 34.6432C31.9456 34.2213 31.6777 34.201 31.376 34.2222ZM38.8298 34.4134C38.7124 33.9127 38.189 33.4343 37.7613 33.4303L37.7143 33.4351C36.938 33.4571 36.5291 34.0114 36.6238 34.9416C36.6778 35.1925 36.6614 35.4979 36.8667 35.7429C37.2217 36.153 37.7521 36.3269 38.1607 36.1429C38.7777 35.8618 39.0163 35.2204 38.8298 34.4134ZM38.8298 34.4134C38.7124 33.9127 38.189 33.4343 37.7613 33.4303L37.7143 33.4351C36.938 33.4571 36.5291 34.0114 36.6238 34.9416C36.6778 35.1925 36.6614 35.4979 36.8667 35.7429C37.2217 36.153 37.7521 36.3269 38.1607 36.1429C38.7777 35.8618 39.0163 35.2204 38.8298 34.4134ZM31.376 34.2222C30.9606 34.2455 31.1256 34.561 31.1045 34.8195C31.2118 34.9415 31.0301 35.3017 31.4125 35.2344C31.7949 35.167 32.0504 35.065 31.998 34.6432C31.9456 34.2213 31.6777 34.201 31.376 34.2222ZM63.9119 31.5868C63.7781 30.2713 63.6349 28.9568 63.5104 27.6403C63.476 27.302 63.3442 27.1255 62.9832 27.1243C62.3563 27.1216 61.7331 27.0616 61.1071 27.0683C60.2433 27.0707 59.388 27.0627 58.5252 27.0745C55.8616 27.1176 53.2276 27.452 50.59 27.8437C49.2519 28.0368 47.9308 28.3041 46.6069 28.5432C45.6927 28.7026 44.7784 28.8621 43.8755 29.0394C41.9944 29.4016 40.1265 29.8005 38.2606 30.2181C35.7905 30.7637 33.2617 31.0114 30.7717 31.4545C28.542 31.8427 26.2636 31.8466 24.0072 31.9717C23.8944 31.9832 23.7872 31.9561 23.6735 31.9582C22.5588 32.0146 21.4429 31.8718 20.331 31.8615C20.0274 31.8639 19.9091 31.9139 19.9529 32.2512C20.2343 34.8935 20.5067 37.5399 20.7699 40.1904C20.8082 40.5662 21.0143 40.7257 21.348 40.7392C22.568 40.786 23.8052 40.907 25.0222 40.8307C27.3059 40.6933 29.5975 40.726 31.8731 40.2287C33.4619 39.8868 35.116 39.8134 36.718 39.5081C38.1058 39.2435 39.5048 38.9968 40.8917 38.7228C42.4467 38.4222 43.9989 38.0934 45.5397 37.7468C46.3562 37.5593 47.1992 37.54 48.0053 37.3441C49.3649 37.0248 50.7411 36.7802 52.1274 36.6115C54.0313 36.3799 55.9304 36.1013 57.8447 35.973C59.7591 35.8448 61.8241 35.891 63.8159 35.9638C64.2737 35.9837 64.3552 35.852 64.3132 35.4385C64.1634 34.1531 64.0419 32.8648 63.9109 31.5774L63.9119 31.5868ZM28.2931 35.2763C28.2965 35.6483 28.1722 36.0103 27.9409 36.3016C27.7096 36.593 27.3853 36.7962 27.0222 36.8772C26.1296 37.0629 26.1296 37.0629 26.2261 38.0119C26.3026 38.7637 26.2623 38.8342 25.6994 38.901C25.1365 38.9677 25.0547 38.9096 24.986 38.328C24.843 37.1083 24.7751 35.881 24.5484 34.6794C24.4599 33.9953 24.5433 33.8824 25.2397 33.8211C25.936 33.7597 26.4424 33.6038 27.0583 33.7785C27.6742 33.9532 28.2899 34.4982 28.2931 35.2763ZM34.2646 37.6975C34.2319 37.8432 34.0797 37.8397 33.9594 37.8709C33.22 38.0695 32.6145 37.9033 32.1406 37.2584C31.9861 37.0463 31.758 36.6708 31.5223 36.7802C31.2865 36.8896 31.479 37.2878 31.4973 37.5612C31.5358 38.1269 31.4514 38.2305 30.8603 38.3001C30.2693 38.3697 30.2315 38.2786 30.1761 37.7336C30.1206 37.1886 30.0451 36.4463 29.9801 35.8073L29.9613 35.8092C29.8925 35.1326 29.8341 34.4645 29.7558 33.7889C29.7139 33.4704 29.8387 33.2963 30.1516 33.293C30.7579 33.2788 31.3118 32.9376 31.9615 33.0709C32.6112 33.2042 32.9893 33.3746 33.2168 33.9306C33.4443 34.4866 33.4107 35.183 32.9303 35.6876C32.6732 35.9606 32.7054 36.0902 32.9661 36.32C33.2269 36.5498 33.7428 37.048 34.1316 37.4167C34.1872 37.4965 34.2897 37.5715 34.2636 37.6881L34.2646 37.6975ZM37.9721 37.4628C36.5625 37.6061 35.3765 36.5875 35.2142 35.085C35.0518 33.5825 36.0272 32.344 37.4744 32.1968C38.9216 32.0496 40.1642 33.1574 40.3001 34.5867C40.3627 35.2755 40.153 35.9614 39.7159 36.4975C39.2788 37.0335 38.6491 37.377 37.9617 37.4543L37.9721 37.4628ZM43.7825 36.3401C43.5245 36.536 43.2188 36.6592 42.897 36.697C42.5752 36.7347 42.2493 36.6856 41.9529 36.5547C41.4873 36.3647 41.6907 36.0307 41.7447 35.7214C41.7987 35.4121 41.9527 35.3395 42.2734 35.4113C42.7501 35.5242 42.9734 35.2926 42.9509 34.7917C42.9393 34.5841 42.9098 34.3877 42.8888 34.181C42.8764 33.4987 42.5745 32.8648 42.5161 32.1967C42.4576 31.5286 42.5337 31.5303 43.339 31.4199C43.807 31.3533 43.7944 31.6964 43.8428 31.9858C43.9958 32.9291 44.1581 33.8715 44.2932 34.8261C44.3703 35.3974 44.2951 35.9652 43.7722 36.3316L43.7825 36.3401ZM48.7761 35.6803C48.0967 35.8158 47.4126 35.9044 46.7314 36.0211C46.4044 36.0734 46.2388 35.9383 46.1856 35.602C45.9709 34.301 45.7469 33.001 45.5135 31.7019C45.4423 31.2819 45.5312 31.0355 46.0124 31.0056C46.4935 30.9756 46.9658 30.6713 47.3775 30.7053L47.9038 30.6518C48.1847 30.6137 48.4085 30.6669 48.4702 30.9929C48.5318 31.3189 48.6 31.6158 48.1895 31.781C47.9372 31.8685 47.6749 31.9239 47.4088 31.9459C47.1466 31.982 46.8938 32.0172 46.9405 32.3827C46.9872 32.7482 47.2587 32.7111 47.5125 32.6853L48.1233 32.6232C48.4597 32.57 48.661 32.6824 48.6983 33.0489C48.7356 33.4154 48.7134 33.6644 48.2624 33.7103C48.018 33.7352 47.7823 33.8446 47.5427 33.9164C47.3032 33.9883 47.2828 34.1612 47.3132 34.367C47.3162 34.4111 47.3285 34.4542 47.3494 34.4932C47.3702 34.5322 47.3992 34.5663 47.4342 34.5933C47.4693 34.6202 47.5097 34.6394 47.5528 34.6496C47.5959 34.6597 47.6406 34.6606 47.684 34.6521C47.966 34.6234 48.246 34.5759 48.5156 34.52C48.7853 34.4641 49.0129 34.5549 49.0454 34.8744C49.0779 35.1939 49.2693 35.5826 48.7667 35.6812L48.7761 35.6803ZM54.6399 34.4287C54.262 34.7151 53.8017 34.8718 53.3276 34.8755C51.7049 35.164 50.3795 33.9887 50.2409 32.6261C50.084 30.9902 51.7017 29.4395 53.3414 29.6905L53.5256 29.7287C54.2411 29.8553 54.413 30.3315 53.9685 30.9084C53.8512 31.0627 53.6961 31.031 53.5429 31.0181C53.199 30.962 52.8465 30.9913 52.5166 31.1035C51.8582 31.3509 51.5556 31.9228 51.6969 32.6584C51.8381 33.3941 52.3424 33.6846 53.0407 33.642C53.3718 33.6395 53.6965 33.5508 53.983 33.3848C54.4919 33.0672 54.5736 33.5905 54.7967 33.8242C55.0199 34.0578 54.8605 34.2639 54.6399 34.4287ZM59.0564 29.4035C59.0684 29.801 58.7734 29.888 58.5122 29.9335C58.064 30.0076 58.037 30.2097 58.0979 30.6212C58.2282 31.5289 58.4788 32.4053 58.6175 33.3026C58.6973 33.8072 58.4447 33.9373 58.0341 34.0075C57.6235 34.0778 57.4231 33.9747 57.35 33.536C57.1934 32.65 56.972 31.7801 56.8257 30.9025C56.7507 30.445 56.5644 30.293 56.1378 30.3934C55.7113 30.4937 55.5418 30.3211 55.4528 29.9124C55.3637 29.5038 55.4902 29.2535 55.8933 29.203C56.6883 29.0842 57.4842 28.9748 58.0525 28.7746C58.8681 28.6726 59.0347 28.8171 59.0564 29.4035ZM37.7613 33.4303L37.7143 33.4351C36.938 33.4571 36.5291 34.0114 36.6238 34.9416C36.6778 35.1925 36.6614 35.4979 36.8667 35.7429C37.2217 36.153 37.7521 36.3269 38.1607 36.1429C38.7683 35.8628 39.0163 35.2204 38.8204 34.4144C38.7114 33.9033 38.189 33.4343 37.7613 33.4303ZM31.376 34.2222C30.9606 34.2455 31.1256 34.561 31.1045 34.8195C31.2118 34.9415 31.0301 35.3017 31.4125 35.2344C31.7949 35.167 32.0504 35.065 31.998 34.6432C31.9456 34.2213 31.6777 34.201 31.376 34.2222ZM31.376 34.2222C30.9606 34.2455 31.1256 34.561 31.1045 34.8195C31.2118 34.9415 31.0301 35.3017 31.4125 35.2344C31.7949 35.167 32.0504 35.065 31.998 34.6432C31.9456 34.2213 31.6777 34.201 31.376 34.2222ZM38.8298 34.4134C38.7124 33.9127 38.189 33.4343 37.7613 33.4303L37.7143 33.4351C36.938 33.4571 36.5291 34.0114 36.6238 34.9416C36.6778 35.1925 36.6614 35.4979 36.8667 35.7429C37.2217 36.153 37.7521 36.3269 38.1607 36.1429C38.7777 35.8618 39.0163 35.2204 38.8298 34.4134ZM38.8298 34.4134C38.7124 33.9127 38.189 33.4343 37.7613 33.4303L37.7143 33.4351C36.938 33.4571 36.5291 34.0114 36.6238 34.9416C36.6778 35.1925 36.6614 35.4979 36.8667 35.7429C37.2217 36.153 37.7521 36.3269 38.1607 36.1429C38.7777 35.8618 39.0163 35.2204 38.8298 34.4134ZM31.376 34.2222C30.9606 34.2455 31.1256 34.561 31.1045 34.8195C31.2118 34.9415 31.0301 35.3017 31.4125 35.2344C31.7949 35.167 32.0504 35.065 31.998 34.6432C31.9456 34.2213 31.6777 34.201 31.376 34.2222ZM31.376 34.2222C30.9606 34.2455 31.1256 34.561 31.1045 34.8195C31.2118 34.9415 31.0301 35.3017 31.4125 35.2344C31.7949 35.167 32.0504 35.065 31.998 34.6432C31.9456 34.2213 31.6777 34.201 31.376 34.2222ZM38.8298 34.4134C38.7124 33.9127 38.189 33.4343 37.7613 33.4303L37.7143 33.4351C36.938 33.4571 36.5291 34.0114 36.6238 34.9416C36.6778 35.1925 36.6614 35.4979 36.8667 35.7429C37.2217 36.153 37.7521 36.3269 38.1607 36.1429C38.7777 35.8618 39.0163 35.2204 38.8298 34.4134ZM38.8298 34.4134C38.7124 33.9127 38.189 33.4343 37.7613 33.4303L37.7143 33.4351C36.938 33.4571 36.5291 34.0114 36.6238 34.9416C36.6778 35.1925 36.6614 35.4979 36.8667 35.7429C37.2217 36.153 37.7521 36.3269 38.1607 36.1429C38.7777 35.8618 39.0163 35.2204 38.8298 34.4134ZM31.376 34.2222C30.9606 34.2455 31.1256 34.561 31.1045 34.8195C31.2118 34.9415 31.0301 35.3017 31.4125 35.2344C31.7949 35.167 32.0504 35.065 31.998 34.6432C31.9456 34.2213 31.6777 34.201 31.376 34.2222Z" fill="white"/>
<path d="M75.4159 39.208C75.4599 39.6402 75.3315 39.8716 74.9417 40.0537C73.6279 40.6715 72.2504 40.9445 70.7937 40.9978C69.0907 41.0571 67.4125 40.8006 65.727 40.6587C64.5116 40.564 63.2952 40.4599 62.0714 40.4704C60.877 40.4912 59.6934 40.7013 58.5648 41.0929C58.5354 41.1092 58.5014 41.1152 58.4682 41.11C58.435 41.1047 58.4044 41.0886 58.3814 41.0641C58.3783 40.8461 58.5651 40.7226 58.6814 40.5589C59.7878 39.0223 61.322 38.0498 63.0739 37.4443C63.6851 37.2389 64.3274 37.1414 64.972 37.1563C65.5143 37.1676 65.6214 37.0998 65.564 36.536C65.4273 35.1923 65.2531 33.8524 65.106 32.5002C65.0297 31.8434 65.056 31.8217 65.7178 31.8873C67.298 32.0209 68.8661 32.2222 70.4581 32.0982C71.6544 32.005 72.8176 31.7728 73.9278 31.2991C74.0334 31.2654 74.1372 31.2264 74.2387 31.182C74.5082 31.0312 74.6052 31.1447 74.632 31.4078C74.6826 31.9059 74.7342 32.4133 74.7849 32.9113C74.9802 35.018 75.184 37.1144 75.4159 39.208Z" fill="white"/>
<path d="M78.835 4.58742C78.8008 4.9042 78.7468 5.21349 78.6834 5.52374C78.5426 6.19314 78.1607 6.54529 77.4691 6.65361C76.5633 6.80271 76.062 6.63533 75.7207 5.9865C75.3794 5.33766 75.1745 4.81735 74.916 4.23604C74.5103 3.32792 74.2346 3.13761 73.2743 3.31124C72.4813 3.44887 71.6844 3.54891 70.8856 3.63016C70.5191 3.66744 70.3352 3.81906 70.2898 4.21293C70.0967 5.67562 69.8746 7.13179 69.6721 8.59544C69.596 9.15383 69.6976 9.21944 70.2475 9.21099C70.5458 9.21142 70.8403 9.14356 71.1084 9.01262C71.3765 8.88168 71.6111 8.69112 71.7942 8.45555C72.1666 8.00943 72.5079 7.538 72.9744 7.17725C73.2645 6.94837 73.5706 6.78432 73.9588 6.77332C74.6496 6.75053 75.1298 7.27131 75.0275 7.94628C74.8137 9.32881 74.5964 10.7085 74.3757 12.0854C74.2538 12.8478 73.8636 13.3053 73.2407 13.4351C72.6177 13.5649 72.0776 13.2021 71.7345 12.6294C71.6082 12.4144 71.4453 12.2126 71.319 11.9976C71.0683 11.5864 70.7024 11.4432 70.241 11.4807C69.3181 11.5556 69.2308 11.6309 69.0646 12.7966C68.8351 14.3674 68.6338 15.9354 68.424 17.5137C68.3367 18.1492 68.4215 18.2355 69.0699 18.1695L69.8217 18.0931L69.8188 18.0649C70.1195 18.0343 70.4118 18.014 70.7116 17.9741C71.1504 17.9183 71.5711 17.7649 71.9427 17.525C72.3143 17.2851 72.6274 16.9649 72.8588 16.5879C73.3425 15.8362 73.8667 15.1088 74.4002 14.3804C74.9338 13.6521 75.3309 13.3554 76.0827 13.2789C77.1446 13.1709 77.6699 13.6681 77.5504 14.7341C77.4718 15.4541 77.3536 16.1592 77.2364 16.8737C77.1601 17.3371 77.1223 17.8062 77.0085 18.2734C76.7696 19.2851 76.0957 19.8473 75.1381 19.9542C73.3545 20.1546 71.5975 20.5232 69.8139 20.7236C67.1291 21.0252 64.4464 21.4405 61.7683 21.8078C61.244 21.8802 60.716 22.0098 60.1735 21.9036C59.631 21.7974 59.399 21.3843 59.6961 20.8509C59.7617 20.7072 59.8592 20.5804 59.9812 20.4801C60.9604 19.8394 61.22 18.8446 61.3667 17.7663C61.5978 16.0245 61.858 14.2891 62.1173 12.5443C62.4564 10.1839 62.8152 7.83086 63.1345 5.4629C63.2228 4.83682 63.1137 4.23082 62.6701 3.69682C62.0098 2.90004 62.1538 2.44867 63.1138 2.0852C63.3048 2.01192 63.5033 1.95989 63.7057 1.93006L68.7669 1.28233C71.3905 0.939517 74.031 0.575994 76.664 0.23222C77.0546 0.182409 77.4497 0.180472 77.8408 0.226451C78.5515 0.306062 79.0025 0.820316 79.1043 1.54099C79.248 2.58019 78.9414 3.57974 78.835 4.58742Z" fill="white"/>
</g>
<defs>
<clipPath id="clip0_30_33456">
<rect width="79.3548" height="40" fill="white" transform="translate(0 8.03027) rotate(-5.80798)"/>
</clipPath>
</defs>
</svg>
