<svg width="85" height="53" viewBox="0 0 85 53" fill="none" xmlns="http://www.w3.org/2000/svg">
<g clip-path="url(#clip0_30_33493)">
<path d="M22.3947 43.0434C20.89 43.0512 19.4877 42.7314 18.1257 42.2268C16.402 41.595 14.7077 40.901 12.9638 40.3328C11.2198 39.7645 9.23985 39.2911 7.27082 39.6716C6.66676 39.7912 6.59842 39.6841 6.69775 39.0878C7.11682 36.5723 7.54365 34.0677 7.94409 31.549C8.01393 31.1298 8.21269 30.9714 8.59935 30.8922C10.2299 30.5893 11.8185 30.8252 13.3963 31.2413C14.7085 31.5844 15.9539 32.0983 17.2165 32.5671C17.5768 32.7037 17.6606 32.8901 17.5923 33.2426C17.4061 34.2457 17.3301 35.2767 17.06 36.2658C16.7898 37.255 17.1238 38.067 17.6114 38.876C18.6815 40.615 20.1662 41.8774 21.9785 42.7825L22.3574 42.9797C22.3698 42.9626 22.3745 42.9921 22.3947 43.0434Z" fill="white"/>
<path d="M24.9894 40.4019C24.8885 41.0075 24.7876 41.6131 24.6867 42.2187C24.6464 42.4609 24.5392 42.5867 24.2597 42.4827C23.432 42.1629 22.5608 41.9316 21.7858 41.4673C20.5 40.6786 19.4222 39.6756 18.6348 38.3666L21.3027 39.1367C21.6902 39.2637 22.0883 39.3556 22.4922 39.4114C23.2547 39.4906 23.9349 39.8337 24.6803 39.9579C24.9412 40.0013 25.0297 40.1597 24.9894 40.4019Z" fill="white"/>
<path d="M10.8023 22.6702C9.59099 22.4684 8.38127 22.1999 7.15759 22.1301C5.9339 22.0603 4.94314 21.8569 3.84058 21.6924C3.19612 21.5946 2.91501 21.0977 3.1774 20.6148C3.28897 20.4178 3.47091 20.2702 3.68672 20.2017C4.90104 19.8104 5.37614 18.7979 5.83105 17.7343C6.72223 15.6613 7.64137 13.5929 8.54187 11.5215C9.28711 9.80717 10.0401 8.10374 10.759 6.37547C10.882 6.09348 10.9414 5.78789 10.933 5.48036C10.9247 5.17283 10.8488 4.87091 10.7107 4.596C10.2975 3.742 10.6003 3.3041 11.5584 3.24349C11.9169 3.21201 12.278 3.23028 12.6315 3.29777C14.7326 3.73398 16.8818 3.76646 18.9891 4.1654C19.2075 4.19662 19.4242 4.23911 19.6382 4.29269C19.9022 4.37497 20.1367 4.51937 20.1833 4.81439C20.2138 4.96236 20.2004 5.11603 20.1447 5.25647C20.089 5.3969 19.9934 5.51797 19.8697 5.60477C19.7024 5.72271 19.5221 5.82119 19.3324 5.89827C18.5591 6.22906 18.0762 6.82845 17.761 7.57069C17.1804 8.9294 16.6013 10.2788 16.002 11.6344C15.8793 11.9108 15.9508 12.0567 16.2272 12.1219L16.6465 12.1918C17.9587 12.3625 19.2786 12.4867 20.5784 12.7319C20.9496 12.8033 21.2027 12.721 21.3626 12.3359C22.024 10.78 22.7227 9.23032 23.3747 7.67285C23.5812 7.18061 23.3778 6.67753 23.1572 6.21947C22.8109 5.48193 23.0267 5.0487 23.8264 4.90424C24.0259 4.86435 24.2309 4.85961 24.432 4.89023C26.0626 5.16187 27.718 5.22699 29.3516 5.48C30.1436 5.61194 30.9372 5.73456 31.7276 5.87582C32.164 5.95809 32.6857 6.04501 32.7541 6.55432C32.8225 7.06362 32.3675 7.32296 31.9886 7.4705C30.9544 7.87272 30.456 8.68019 30.0725 9.66001C29.4655 11.1771 28.7606 12.6492 28.1101 14.1399C27.0714 16.5234 26.0311 18.9163 24.9925 21.2999C24.758 21.8449 24.814 22.3713 25.0811 22.8945C25.3482 23.4178 25.4275 23.6321 25.1262 24.0032C24.825 24.3743 24.384 24.4349 23.9243 24.3775L17.4704 23.513C16.9735 23.4493 16.4611 23.4789 15.9967 23.2196C15.5324 22.9603 15.3972 22.4495 15.8833 22.0612C16.0534 21.9183 16.2439 21.8016 16.4485 21.7149C17.2373 21.4059 17.7 20.8127 18.0183 20.0518C18.5695 18.7552 19.1393 17.4617 19.7184 16.1698C20.0056 15.5378 19.9389 15.4214 19.282 15.2832C17.8952 14.9852 16.465 15.0629 15.0767 14.7741C14.7987 14.7183 14.6139 14.8503 14.5161 15.0925C13.8873 16.5102 13.2399 17.9248 12.6546 19.3689C12.3767 20.0599 12.2944 20.7835 12.72 21.5055C13.0399 22.0567 12.7418 22.5816 12.0865 22.6639C11.6611 22.7291 11.2283 22.7312 10.8023 22.6702Z" fill="white"/>
<path d="M35.0092 9.51523C35.1101 9.26693 35.1588 9.00055 35.1523 8.73264C35.1459 8.46472 35.0845 8.20098 34.9718 7.95781C34.8838 7.77364 34.8262 7.5765 34.801 7.37397C34.7357 6.78858 35.1736 6.45937 35.8413 6.47486C37.5293 6.51669 39.1863 6.85975 40.8463 7.12674C41.6678 7.25401 42.5188 7.14682 43.3248 7.36727C43.435 7.39521 43.5406 7.39366 43.6493 7.43092C44.0143 7.53959 44.4118 7.68242 44.4755 8.10477C44.5392 8.52712 44.2069 8.79732 43.8715 8.97125C43.2193 9.32221 42.5361 9.6297 42.2038 10.3595C41.8716 11.0893 41.6589 11.5614 41.4042 12.1701C40.8748 13.3937 40.364 14.6204 39.8346 15.844C39.1468 17.4434 38.459 19.0428 37.7712 20.6422C37.4452 21.3922 37.1377 22.1453 36.8117 22.8953C36.5773 23.4404 36.5851 23.9683 36.8724 24.4854C37.3974 25.4154 36.8663 25.9589 35.9051 25.9807C35.8259 25.9826 35.7467 25.9759 35.669 25.9606C33.7993 25.5725 31.8831 25.5788 30.0087 25.2187L28.052 24.8927C27.698 24.8337 27.4107 24.6614 27.3376 24.2949C27.2646 23.9285 27.5286 23.7235 27.7646 23.5139C27.8886 23.4161 28.0275 23.339 28.1761 23.2856C29.1063 22.933 29.5674 22.1768 29.9323 21.3088C30.617 19.6706 31.3358 18.0572 32.0298 16.4206C32.8108 14.6069 33.5746 12.7808 34.3556 10.9671C34.5792 10.4873 34.8307 10.0121 35.0092 9.51523Z" fill="white"/>
<path d="M58.0118 44.0553C56.3177 44.4854 54.7294 45.2569 53.344 46.3226C53.5023 45.3723 53.6622 44.4126 53.8205 43.4623C53.8671 43.1828 54.0783 43.1223 54.3174 43.1813C55.1296 43.3644 55.9635 43.4172 56.7555 43.7215C57.1531 43.8643 57.5848 43.9171 58.0118 44.0553Z" fill="white"/>
<path d="M45.8622 8.23046C46.0671 7.86244 46.446 7.88726 46.8327 7.92295C49.1248 8.13244 51.3703 8.62144 53.6686 8.79366C53.9947 8.84799 54.3239 8.88368 54.6469 8.95664C55.4638 9.16933 55.6843 9.91464 55.1036 10.5265C54.9639 10.6755 54.807 10.8122 54.6595 10.9504C54.071 11.4939 54.1254 12.202 54.1503 12.9147C54.1892 13.9457 54.2173 14.9845 54.2469 16.014C54.2765 17.0435 54.289 17.8307 54.3092 18.7438C54.317 18.8695 54.3124 19.0124 54.4676 19.0574C54.6229 19.1024 54.6944 18.9611 54.7673 18.868C55.3698 18.0682 55.9567 17.2468 56.5856 16.4611C57.9054 14.8042 59.0388 13.0014 60.4953 11.4438C61.1615 10.7218 61.9534 10.1643 62.955 10.0726C64.4923 9.92656 66.0018 10.2929 66.5066 11.8612C67.0875 13.6624 65.9355 15.9792 63.7941 16.1299C62.8344 16.1998 62.1091 15.8396 61.5236 15.158C61.2503 14.8444 61.0795 14.8351 60.8357 15.1487C58.8513 17.6907 56.8763 20.2343 54.8593 22.7421C53.6885 24.194 52.6513 25.7639 51.2771 27.0575C50.7787 27.5202 50.1995 27.8355 49.4914 27.7749C48.4059 27.6803 47.9214 27.2549 47.6573 26.1959C47.4382 25.3263 47.4553 24.4195 47.421 23.5329C47.3323 21.6509 47.1753 19.7768 47.1348 17.8933C47.0943 16.0098 46.9062 13.9772 46.8967 12.0223C46.8951 11.0549 46.6714 10.1558 45.9912 9.41055C45.6495 9.04722 45.6432 8.62487 45.8622 8.23046Z" fill="white"/>
<path d="M25.3164 33.3803C25.2512 33.7142 25.0292 33.84 24.7015 33.7949C24.3738 33.7499 24.3862 33.4456 24.4219 33.1738C24.4576 32.9021 24.4824 32.6381 24.8582 32.739C25.234 32.84 25.3878 33.0092 25.3164 33.3803Z" fill="white"/>
<path d="M29.9456 33.5291C29.5387 33.4422 29.6148 33.79 29.5263 34.0338C29.5978 34.1798 29.3276 34.4795 29.7143 34.5152C30.101 34.5508 30.3743 34.5198 30.4348 34.099C30.4953 33.6782 30.2422 33.5881 29.9456 33.5291ZM29.9456 33.5291C29.5387 33.4422 29.6148 33.79 29.5263 34.0338C29.5978 34.1798 29.3276 34.4795 29.7143 34.5152C30.101 34.5508 30.3743 34.5198 30.4348 34.099C30.4953 33.6782 30.2422 33.5881 29.9456 33.5291ZM29.9456 33.5291C29.5387 33.4422 29.6148 33.79 29.5263 34.0338C29.5978 34.1798 29.3276 34.4795 29.7143 34.5152C30.101 34.5508 30.3743 34.5198 30.4348 34.099C30.4953 33.6782 30.2422 33.5881 29.9456 33.5291ZM37.086 35.6762C37.1045 35.1622 36.7256 34.5629 36.3141 34.4464L36.2675 34.4387C35.5128 34.2555 34.9724 34.6825 34.8187 35.6049C34.8048 35.8611 34.7085 36.1515 34.8421 36.4418C35.0766 36.931 35.5425 37.2384 35.9851 37.1685C36.6544 37.0597 37.0534 36.5038 37.086 35.6762ZM37.086 35.6762C37.1045 35.1622 36.7256 34.5629 36.3141 34.4464L36.2675 34.4387C35.5128 34.2555 34.9724 34.6825 34.8187 35.6049C34.8048 35.8611 34.7085 36.1515 34.8421 36.4418C35.0766 36.931 35.5425 37.2384 35.9851 37.1685C36.6544 37.0597 37.0534 36.5038 37.086 35.6762ZM29.9456 33.5291C29.5387 33.4422 29.6148 33.79 29.5263 34.0338C29.5978 34.1798 29.3276 34.4795 29.7143 34.5152C30.101 34.5508 30.3743 34.5198 30.4348 34.099C30.4953 33.6782 30.2422 33.5881 29.9456 33.5291ZM29.9456 33.5291C29.5387 33.4422 29.6148 33.79 29.5263 34.0338C29.5978 34.1798 29.3276 34.4795 29.7143 34.5152C30.101 34.5508 30.3743 34.5198 30.4348 34.099C30.4953 33.6782 30.2422 33.5881 29.9456 33.5291ZM37.086 35.6762C37.1045 35.1622 36.7256 34.5629 36.3141 34.4464L36.2675 34.4387C35.5128 34.2555 34.9724 34.6825 34.8187 35.6049C34.8048 35.8611 34.7085 36.1515 34.8421 36.4418C35.0766 36.931 35.5425 37.2384 35.9851 37.1685C36.6544 37.0597 37.0534 36.5038 37.086 35.6762ZM37.086 35.6762C37.1045 35.1622 36.7256 34.5629 36.3141 34.4464L36.2675 34.4387C35.5128 34.2555 34.9724 34.6825 34.8187 35.6049C34.8048 35.8611 34.7085 36.1515 34.8421 36.4418C35.0766 36.931 35.5425 37.2384 35.9851 37.1685C36.6544 37.0597 37.0534 36.5038 37.086 35.6762ZM29.9456 33.5291C29.5387 33.4422 29.6148 33.79 29.5263 34.0338C29.5978 34.1798 29.3276 34.4795 29.7143 34.5152C30.101 34.5508 30.3743 34.5198 30.4348 34.099C30.4953 33.6782 30.2422 33.5881 29.9456 33.5291ZM62.0272 39.5536C62.2445 38.2492 62.4525 36.9433 62.6791 35.6406C62.735 35.3052 62.6542 35.1002 62.3064 35.0039C61.7023 34.8363 61.1168 34.6143 60.5112 34.4559C59.6773 34.2308 58.8542 33.998 58.0187 33.7822C55.4378 33.1224 52.8087 32.7514 50.161 32.4348C48.8193 32.2687 47.4745 32.1788 46.1343 32.0608C45.2104 31.9739 44.2864 31.887 43.3686 31.8203C41.4586 31.6745 39.5516 31.5674 37.6415 31.479C35.115 31.355 32.6101 30.9281 30.0913 30.7C27.8381 30.4874 25.6391 29.8912 23.4293 29.4178C23.3175 29.3991 23.2212 29.3448 23.111 29.3169C22.0208 29.0778 20.9819 28.6462 19.9119 28.3435C19.6184 28.2658 19.4911 28.2829 19.4445 28.6199C19.0203 31.2431 18.5862 33.8678 18.1423 36.494C18.0802 36.8667 18.2371 37.0748 18.5554 37.1757C19.7201 37.5421 20.8817 37.9845 22.0759 38.2314C24.3152 38.7002 26.5173 39.3351 28.8435 39.4546C30.4663 39.543 32.0813 39.9078 33.7072 40.035C35.1157 40.1452 36.5304 40.2755 37.9404 40.3764C39.5197 40.4959 41.1037 40.5874 42.6814 40.6587C43.5184 40.6928 44.3368 40.8962 45.1661 40.9194C46.5618 40.9694 47.9537 41.0958 49.3356 41.2981C51.2333 41.5759 53.1387 41.8072 55.0193 42.1875C56.8999 42.5678 58.8798 43.1562 60.7822 43.7508C61.2186 43.8905 61.3319 43.7849 61.4002 43.375C61.5942 42.0955 61.8162 40.8206 62.0288 39.5443L62.0272 39.5536ZM26.6938 33.7343C26.5993 34.0941 26.3841 34.4105 26.0842 34.6307C25.7843 34.8508 25.418 34.9614 25.0463 34.944C24.1363 34.8881 24.1363 34.8881 23.9796 35.8291C23.8554 36.5745 23.798 36.6319 23.2374 36.5481C22.6768 36.4643 22.6131 36.3866 22.7 35.8075C22.8831 34.5932 23.1408 33.3913 23.2385 32.1724C23.3332 31.4892 23.4435 31.4022 24.1314 31.5264C24.8193 31.6506 25.3489 31.6335 25.8971 31.9642C26.4453 32.2949 26.8957 32.9827 26.6938 33.7343ZM31.8172 37.6423C31.7473 37.7743 31.6013 37.7308 31.4771 37.7293C30.7115 37.7262 30.1711 37.4064 29.8837 36.6595C29.7905 36.4142 29.6694 35.9918 29.4132 36.0353C29.1569 36.0788 29.2377 36.5136 29.1834 36.7822C29.0716 37.3381 28.9629 37.4158 28.3744 37.3273C27.7858 37.2388 27.7734 37.141 27.8634 36.6006C27.9534 36.0603 28.0761 35.3242 28.1816 34.6907L28.163 34.6876C28.2747 34.0168 28.3942 33.3569 28.4967 32.6845C28.5401 32.3662 28.7063 32.2311 29.0091 32.3103C29.5976 32.4562 30.2219 32.2729 30.8136 32.5726C31.4052 32.8722 31.7252 33.1362 31.7982 33.7324C31.8712 34.3287 31.6554 34.9917 31.0592 35.352C30.7393 35.5477 30.7362 35.6812 30.9272 35.9716C31.1182 36.2619 31.4848 36.8784 31.7628 37.3364C31.7954 37.428 31.8746 37.5274 31.8187 37.633L31.8172 37.6423ZM35.4556 38.3921C34.058 38.1592 33.1821 36.8643 33.4211 35.3721C33.6601 33.8798 34.9272 32.9419 36.3621 33.1809C37.797 33.42 38.704 34.8159 38.4588 36.2305C38.3378 36.9114 37.9549 37.518 37.3921 37.92C36.8293 38.322 36.1313 38.4876 35.4479 38.3812L35.4556 38.3921ZM41.3567 38.8389C41.0562 38.96 40.7287 38.9984 40.4084 38.9501C40.0881 38.9017 39.7865 38.7685 39.5351 38.5642C39.136 38.2583 39.4201 37.9897 39.5537 37.7055C39.6872 37.4214 39.8549 37.3918 40.1453 37.5456C40.5755 37.78 40.8519 37.6154 40.9621 37.1263C41.0056 36.9228 41.0288 36.7256 41.063 36.5207C41.2306 35.8592 41.1063 35.1682 41.2259 34.5083C41.3454 33.8483 41.4184 33.8701 42.2243 33.9756C42.6933 34.0346 42.5908 34.3622 42.5614 34.6542C42.4605 35.6045 42.369 36.5563 42.2479 37.5128C42.1719 38.0842 41.9499 38.6122 41.3489 38.8281L41.3567 38.8389ZM46.3477 39.5172C45.6567 39.4691 44.9734 39.3744 44.2855 39.3077C43.9562 39.272 43.832 39.0981 43.8692 38.7596C44.0047 37.448 44.1309 36.1349 44.2478 34.8202C44.2897 34.3963 44.4403 34.182 44.9124 34.2798C45.3845 34.3776 45.9202 34.2083 46.3085 34.3496L46.8302 34.4365C47.1113 34.4738 47.3132 34.584 47.2868 34.9148C47.2604 35.2455 47.2481 35.5498 46.8086 35.6011C46.5421 35.6191 46.2745 35.6034 46.012 35.5546C45.7495 35.5204 45.4964 35.4878 45.4452 35.8527C45.394 36.2176 45.6657 36.2533 45.9173 36.2952L46.5229 36.3961C46.8615 36.4334 47.0261 36.5949 46.9655 36.9582C46.905 37.3216 46.8181 37.556 46.3708 37.4815C46.1286 37.4412 45.8724 37.4847 45.6223 37.4909C45.3723 37.4971 45.3071 37.6586 45.2823 37.8651C45.2735 37.9085 45.2741 37.9532 45.2839 37.9964C45.2938 38.0395 45.3127 38.08 45.3395 38.1153C45.3662 38.1505 45.4001 38.1797 45.439 38.2008C45.4779 38.2219 45.5208 38.2345 45.5649 38.2378C45.8445 38.2843 46.1271 38.3123 46.402 38.3293C46.6768 38.3464 46.8725 38.4939 46.8197 38.8107C46.767 39.1274 46.8493 39.5529 46.3384 39.5157L46.3477 39.5172ZM52.3341 39.8538C51.8942 40.0306 51.4089 40.0606 50.9505 39.9393C49.3091 39.7903 48.34 38.3075 48.565 36.9566C48.8444 35.337 50.8134 34.267 52.3291 34.9409L52.4968 35.0263C53.1537 35.3368 53.1941 35.8414 52.6134 36.2809C52.4596 36.3989 52.3183 36.3275 52.1739 36.2747C51.8569 36.13 51.5092 36.0655 51.1614 36.0869C50.461 36.1521 50.0185 36.6242 49.9611 37.3711C49.9037 38.118 50.3137 38.531 50.9985 38.6738C51.3186 38.7585 51.6552 38.7585 51.9753 38.6737C52.5499 38.5013 52.4909 39.0277 52.6447 39.3119C52.7984 39.596 52.5904 39.7529 52.3341 39.8538ZM57.918 36.1688C57.8249 36.5554 57.5174 36.5616 57.2534 36.5368C56.8015 36.4903 56.7223 36.6782 56.6727 37.0912C56.5594 38.0011 56.5703 38.9126 56.4679 39.8148C56.4121 40.3225 56.1341 40.3815 55.7195 40.3412C55.3048 40.3008 55.1387 40.1487 55.1837 39.7061C55.2659 38.8102 55.2814 37.9127 55.3713 37.0276C55.4194 36.5664 55.2797 36.3708 54.8418 36.3553C54.4038 36.3398 54.2858 36.1286 54.3075 35.7109C54.3292 35.2932 54.5171 35.0851 54.9193 35.1426C55.7175 35.2372 56.5141 35.3412 57.1151 35.2977C57.9288 35.4141 58.0515 35.5973 57.918 36.1688ZM36.3141 34.4464L36.2675 34.4387C35.5128 34.2555 34.9724 34.6825 34.8187 35.6049C34.8048 35.8611 34.7085 36.1515 34.8421 36.4418C35.0766 36.931 35.5425 37.2384 35.9851 37.1685C36.645 37.0582 37.0534 36.5038 37.0766 35.6746C37.1061 35.1529 36.7256 34.5629 36.3141 34.4464ZM29.9456 33.5291C29.5387 33.4422 29.6148 33.79 29.5263 34.0338C29.5978 34.1798 29.3276 34.4795 29.7143 34.5152C30.101 34.5508 30.3743 34.5198 30.4348 34.099C30.4953 33.6782 30.2422 33.5881 29.9456 33.5291ZM29.9456 33.5291C29.5387 33.4422 29.6148 33.79 29.5263 34.0338C29.5978 34.1798 29.3276 34.4795 29.7143 34.5152C30.101 34.5508 30.3743 34.5198 30.4348 34.099C30.4953 33.6782 30.2422 33.5881 29.9456 33.5291ZM37.086 35.6762C37.1045 35.1622 36.7256 34.5629 36.3141 34.4464L36.2675 34.4387C35.5128 34.2555 34.9724 34.6825 34.8187 35.6049C34.8048 35.8611 34.7085 36.1515 34.8421 36.4418C35.0766 36.931 35.5425 37.2384 35.9851 37.1685C36.6544 37.0597 37.0534 36.5038 37.086 35.6762ZM37.086 35.6762C37.1045 35.1622 36.7256 34.5629 36.3141 34.4464L36.2675 34.4387C35.5128 34.2555 34.9724 34.6825 34.8187 35.6049C34.8048 35.8611 34.7085 36.1515 34.8421 36.4418C35.0766 36.931 35.5425 37.2384 35.9851 37.1685C36.6544 37.0597 37.0534 36.5038 37.086 35.6762ZM29.9456 33.5291C29.5387 33.4422 29.6148 33.79 29.5263 34.0338C29.5978 34.1798 29.3276 34.4795 29.7143 34.5152C30.101 34.5508 30.3743 34.5198 30.4348 34.099C30.4953 33.6782 30.2422 33.5881 29.9456 33.5291ZM29.9456 33.5291C29.5387 33.4422 29.6148 33.79 29.5263 34.0338C29.5978 34.1798 29.3276 34.4795 29.7143 34.5152C30.101 34.5508 30.3743 34.5198 30.4348 34.099C30.4953 33.6782 30.2422 33.5881 29.9456 33.5291ZM37.086 35.6762C37.1045 35.1622 36.7256 34.5629 36.3141 34.4464L36.2675 34.4387C35.5128 34.2555 34.9724 34.6825 34.8187 35.6049C34.8048 35.8611 34.7085 36.1515 34.8421 36.4418C35.0766 36.931 35.5425 37.2384 35.9851 37.1685C36.6544 37.0597 37.0534 36.5038 37.086 35.6762ZM37.086 35.6762C37.1045 35.1622 36.7256 34.5629 36.3141 34.4464L36.2675 34.4387C35.5128 34.2555 34.9724 34.6825 34.8187 35.6049C34.8048 35.8611 34.7085 36.1515 34.8421 36.4418C35.0766 36.931 35.5425 37.2384 35.9851 37.1685C36.6544 37.0597 37.0534 36.5038 37.086 35.6762ZM29.9456 33.5291C29.5387 33.4422 29.6148 33.79 29.5263 34.0338C29.5978 34.1798 29.3276 34.4795 29.7143 34.5152C30.101 34.5508 30.3743 34.5198 30.4348 34.099C30.4953 33.6782 30.2422 33.5881 29.9456 33.5291Z" fill="white"/>
<path d="M71.1188 49.9348C71.0474 50.3634 70.8627 50.5528 70.4387 50.6259C69.0085 50.8759 67.6078 50.7766 66.1884 50.4444C64.5299 50.0532 62.9785 49.3639 61.3899 48.7832C60.2422 48.3718 59.0962 47.9511 57.9129 47.639C56.7551 47.3446 55.5579 47.2357 54.366 47.3163C54.3334 47.3242 54.299 47.3211 54.2683 47.3073C54.2377 47.2935 54.2125 47.2699 54.1968 47.2402C54.2511 47.029 54.4638 46.9591 54.6191 46.8318C56.0911 45.6407 57.8272 45.1065 59.6767 44.9837C60.3204 44.9464 60.9657 45.0215 61.5837 45.2056C62.1039 45.3593 62.225 45.3221 62.3182 44.7631C62.5401 43.4308 62.7248 42.0923 62.939 40.7491C63.0383 40.0954 63.0694 40.0814 63.6905 40.319C65.1798 40.8639 66.6396 41.4709 68.208 41.7705C69.3867 41.9956 70.57 42.0779 71.7657 41.9132C71.8764 41.9085 71.9868 41.8982 72.0965 41.8821C72.3962 41.8076 72.4598 41.9427 72.4164 42.2035C72.3341 42.6973 72.2503 43.2004 72.1681 43.6942C71.8017 45.778 71.4463 47.8541 71.1188 49.9348Z" fill="white"/>
<path d="M83.533 17.4363C83.4166 17.7329 83.2831 18.017 83.1402 18.2996C82.8281 18.9083 82.367 19.1475 81.6713 19.0699C80.7581 18.9752 80.3186 18.6818 80.1602 17.966C80.0017 17.2501 79.9411 16.6943 79.8448 16.0654C79.6925 15.0825 79.4767 14.8263 78.5045 14.741C77.7032 14.6649 76.9082 14.5516 76.1162 14.4197C75.7528 14.3591 75.5354 14.457 75.3879 14.825C74.8166 16.1852 74.2188 17.5315 73.6381 18.8902C73.4177 19.4089 73.4984 19.4989 74.0311 19.6355C74.3188 19.7145 74.6208 19.7266 74.9139 19.6709C75.207 19.6151 75.4835 19.4931 75.7221 19.314C76.1989 18.9817 76.6523 18.6168 77.1973 18.3916C77.5374 18.2472 77.8759 18.1695 78.2533 18.2611C78.9257 18.421 79.2518 19.0498 78.9755 19.6741C78.4052 20.9515 77.8323 22.2253 77.2568 23.4955C76.9385 24.199 76.4416 24.5375 75.8064 24.4987C75.1713 24.4599 74.7458 23.9677 74.5656 23.3249C74.5003 23.0842 74.3963 22.8466 74.331 22.606C74.1975 22.1433 73.8822 21.9088 73.4272 21.8234C72.5172 21.6527 72.4131 21.7024 71.9458 22.7831C71.3108 24.2381 70.7037 25.6977 70.0858 27.1651C69.8343 27.7552 69.8933 27.8608 70.5362 27.9679L71.2816 28.0921L71.2863 28.0641C71.5844 28.1138 71.8717 28.1712 72.1714 28.2116C72.6094 28.2734 73.0557 28.2361 73.4774 28.1025C73.899 27.9689 74.2854 27.7424 74.6079 27.4397C75.2724 26.8419 75.9696 26.2782 76.6762 25.716C77.3827 25.1539 77.8439 24.9722 78.5893 25.0964C79.6421 25.2718 80.018 25.8897 79.6221 26.8867C79.3566 27.5606 79.057 28.2096 78.7558 28.868C78.5601 29.2951 78.4002 29.7376 78.1673 30.1584C77.6705 31.0715 76.8723 31.4364 75.9204 31.2874C74.147 31.0111 72.3549 30.9041 70.5815 30.6278C67.912 30.2118 65.2146 29.9061 62.5343 29.5553C62.0094 29.487 61.4659 29.4731 60.9705 29.2277C60.4751 28.9824 60.3602 28.5228 60.7872 28.0865C60.8883 27.9652 61.0158 27.8685 61.1599 27.8038C62.2733 27.4435 62.7856 26.5522 63.211 25.5507C63.8926 23.9311 64.6006 22.3255 65.3101 20.7106C66.2588 18.5227 67.2245 16.3472 68.156 14.1468C68.406 13.5661 68.4603 12.9528 68.173 12.3208C67.7458 11.3783 68.0036 10.9808 69.0254 10.8829C69.2289 10.8625 69.4341 10.8645 69.6372 10.8891L74.6904 11.5968C77.3117 11.9569 79.9547 12.3015 82.5854 12.6631C82.9752 12.7179 83.357 12.8201 83.7221 12.9674C84.3868 13.2313 84.6865 13.8462 84.595 14.5683C84.4599 15.6086 83.901 16.4922 83.533 17.4363Z" fill="white"/>
</g>
<defs>
<clipPath id="clip0_30_33493">
<rect width="79.3548" height="40" fill="white" transform="translate(6.57324) rotate(9.45825)"/>
</clipPath>
</defs>
</svg>
