<svg width="80" height="40" viewBox="0 0 80 40" fill="none" xmlns="http://www.w3.org/2000/svg">
<g clip-path="url(#clip0_817_137)">
<path d="M22.6776 39.8583C21.1947 40.1133 19.759 40.0283 18.3328 39.7544C16.5288 39.4144 14.7437 39.0082 12.9302 38.7343C11.1168 38.4604 9.08607 38.3188 7.20649 39.0177C6.63034 39.2349 6.54533 39.1405 6.54533 38.536C6.54533 35.9858 6.55478 33.4451 6.53589 30.8949C6.53589 30.4699 6.7059 30.281 7.07426 30.1393C8.6327 29.5726 10.2384 29.5443 11.8629 29.6954C13.2136 29.8182 14.5264 30.1204 15.8488 30.3754C16.2266 30.451 16.3399 30.621 16.3305 30.9799C16.3116 32 16.406 33.0295 16.3021 34.0496C16.1982 35.0696 16.661 35.8158 17.275 36.5336C18.6162 38.0732 20.288 39.0744 22.2242 39.6694L22.6303 39.8016C22.6398 39.7827 22.6492 39.8111 22.6776 39.8583Z" fill="white"/>
<path d="M24.8028 36.8267C24.8028 37.4406 24.8028 38.0545 24.8028 38.6685C24.8028 38.914 24.7178 39.0557 24.425 38.9991C23.5561 38.8196 22.6588 38.7346 21.8182 38.404C20.4203 37.8373 19.1924 37.025 18.2007 35.8633L20.9587 36.1844C21.3617 36.246 21.7695 36.2713 22.1771 36.26C22.9421 36.2127 23.6694 36.4394 24.425 36.4394C24.6895 36.4394 24.8028 36.5811 24.8028 36.8267Z" fill="white"/>
<path d="M7.89609 21.6671C6.66823 21.6671 5.43092 21.601 4.2125 21.7332C2.99409 21.8655 1.98346 21.8277 0.868939 21.8466C0.217228 21.856 -0.141686 21.4121 0.0377706 20.8926C0.115445 20.68 0.270643 20.5045 0.472245 20.4015C1.60566 19.8159 1.9079 18.7391 2.18181 17.6152C2.72018 15.4239 3.28688 13.2326 3.8347 11.0414C4.28807 9.22793 4.75088 7.42391 5.17591 5.60101C5.25088 5.30264 5.25929 4.99144 5.20052 4.68946C5.14176 4.38749 5.01727 4.10214 4.83588 3.85366C4.28807 3.07917 4.51475 2.59747 5.44981 2.38023C5.79821 2.29027 6.15738 2.24895 6.51711 2.25744C8.66115 2.34245 10.7863 2.02131 12.9303 2.06854C13.1509 2.06344 13.3716 2.06975 13.5915 2.08743C13.8654 2.12521 14.1204 2.22911 14.2149 2.51246C14.2693 2.65341 14.2813 2.80719 14.2494 2.95487C14.2175 3.10256 14.1431 3.23769 14.0354 3.34363C13.8897 3.48747 13.7281 3.61423 13.5537 3.72143C12.8453 4.1748 12.4675 4.8454 12.2786 5.62934C11.9292 7.065 11.5797 8.49121 11.2113 9.92686C11.1358 10.2197 11.2302 10.3519 11.5136 10.3708H11.9386C13.2609 10.3236 14.5832 10.2291 15.9055 10.2574C16.2833 10.2669 16.5195 10.1441 16.6139 9.73796C17.0106 8.09451 17.4451 6.45107 17.8323 4.80762C17.9551 4.28814 17.6718 3.82533 17.379 3.40974C16.9162 2.73914 17.0578 2.27633 17.8229 2.00242C18.0131 1.93029 18.2145 1.89193 18.4179 1.88908C20.0708 1.88908 21.7143 1.68129 23.3672 1.6624C24.17 1.6624 24.9728 1.65296 25.7757 1.6624C26.2196 1.67185 26.7485 1.67185 26.8996 2.16299C27.0508 2.65414 26.6446 2.98471 26.2951 3.19251C25.3412 3.75921 24.9823 4.63761 24.765 5.66712C24.4156 7.26334 23.9622 8.83123 23.5655 10.4086C22.9327 12.9304 22.2999 15.4617 21.667 17.9835C21.5254 18.5597 21.6671 19.0697 22.0165 19.542C22.366 20.0142 22.4793 20.2126 22.2432 20.6282C22.0071 21.0437 21.582 21.176 21.1192 21.1949L14.6116 21.4027C14.111 21.4215 13.6104 21.5349 13.1098 21.3554C12.6092 21.176 12.392 20.6943 12.8075 20.2315C12.9518 20.0625 13.1206 19.9161 13.3081 19.797C14.0354 19.3625 14.3943 18.7014 14.5832 17.8985C14.9138 16.529 15.2633 15.1594 15.6222 13.7899C15.8016 13.1193 15.7166 13.0154 15.046 12.9871C13.6293 12.921 12.2314 13.2326 10.8146 13.176C10.5313 13.1665 10.3707 13.3271 10.314 13.5821C9.92679 15.0839 9.52065 16.5857 9.18063 18.1063C9.02006 18.8336 9.05784 19.5609 9.59621 20.2031C10.0024 20.6943 9.79456 21.261 9.16174 21.4499C8.75281 21.584 8.32635 21.6572 7.89609 21.6671Z" fill="white"/>
<path d="M29.6104 4.71306C29.6691 4.45157 29.6734 4.1808 29.623 3.91759C29.5726 3.65437 29.4687 3.40431 29.3176 3.18295C29.2006 3.01575 29.1113 2.83077 29.0531 2.63514C28.8926 2.06843 29.2704 1.67174 29.9315 1.57729C31.6033 1.34116 33.294 1.40728 34.9752 1.39783C35.8064 1.38839 36.6281 1.14281 37.4593 1.22782C37.5726 1.23726 37.6765 1.21837 37.7899 1.23726C38.1677 1.28449 38.5833 1.36005 38.7155 1.76619C38.8477 2.17233 38.5644 2.49346 38.2621 2.72014C37.6765 3.17351 37.0531 3.58909 36.8454 4.36359C36.6376 5.13809 36.5053 5.63868 36.3542 6.28095C36.0331 7.57493 35.7308 8.8689 35.4097 10.1629C34.9941 11.8536 34.5785 13.5442 34.1629 15.2349C33.9646 16.0283 33.7851 16.8217 33.5868 17.6151C33.4451 18.1912 33.5396 18.7107 33.9079 19.1735C34.5785 20.0047 34.1441 20.6281 33.1995 20.8075C33.1218 20.8224 33.0426 20.8287 32.9634 20.8264C31.0555 20.7508 29.1665 21.072 27.2586 21.0248H25.2751C24.9162 21.0248 24.6045 20.902 24.4723 20.5525C24.34 20.203 24.5667 19.9575 24.7651 19.7119C24.8713 19.5951 24.9957 19.4962 25.1334 19.4191C25.9929 18.9185 26.3235 18.0968 26.5408 17.1806C26.9469 15.4521 27.3908 13.7426 27.8064 12.0141C28.2786 10.0968 28.732 8.16997 29.2043 6.25261C29.3459 5.74258 29.516 5.23254 29.6104 4.71306Z" fill="white"/>
<path d="M57.9741 35.0034C56.3738 35.7061 54.934 36.7282 53.7427 38.007C53.7427 37.0436 53.7427 36.0707 53.7427 35.1073C53.7427 34.824 53.941 34.7295 54.1866 34.7484C55.0178 34.7956 55.8489 34.7106 56.6801 34.8806C57.0957 34.9562 57.5302 34.9373 57.9741 35.0034Z" fill="white"/>
<path d="M40.1039 1.66221C40.2456 1.26551 40.6234 1.22773 41.0106 1.1994C43.3058 1.02939 45.6009 1.14273 47.8961 0.934935C48.2267 0.934935 48.5572 0.916045 48.8878 0.934935C49.7284 1.0105 50.0685 1.70943 49.5962 2.40837C49.4829 2.57838 49.3506 2.73895 49.2278 2.89952C48.7367 3.53234 48.9067 4.22183 49.0484 4.92077C49.2562 5.93139 49.4545 6.95146 49.6529 7.96209C49.8512 8.97272 49.9929 9.74721 50.1629 10.6445C50.1912 10.7673 50.2101 10.909 50.3707 10.9279C50.5313 10.9467 50.5785 10.7956 50.6352 10.6917C51.098 9.80388 51.5419 8.89715 52.033 8.01876C53.0626 6.16752 53.8843 4.20294 55.0649 2.42726C55.6033 1.60554 56.2928 0.92549 57.2656 0.670473C58.7579 0.273778 60.3069 0.38712 61.0626 1.85111C61.9315 3.53234 61.1759 6.00695 59.0885 6.50754C58.1535 6.73423 57.379 6.4981 56.6895 5.92195C56.3683 5.65749 56.1983 5.67638 56.0094 6.02584C54.4699 8.85937 52.9398 11.6929 51.3624 14.4981C50.4463 16.1227 49.6812 17.8417 48.5384 19.3434C48.1228 19.8818 47.6033 20.2879 46.8949 20.3446C45.8087 20.4296 45.2609 20.0896 44.8264 19.0884C44.4675 18.2667 44.3353 17.3694 44.1558 16.5005C43.7591 14.6587 43.2963 12.8358 42.9469 10.9845C42.5974 9.13328 42.0779 7.15926 41.7473 5.23246C41.5868 4.2785 41.2184 3.42844 40.425 2.80507C40.0283 2.50282 39.9528 2.08724 40.1039 1.66221Z" fill="white"/>
<path d="M23.9715 29.8465C23.9621 30.1865 23.7637 30.3471 23.4332 30.3566C23.1026 30.366 23.0648 30.0638 23.0554 29.7899C23.0459 29.5159 23.027 29.2515 23.4143 29.2893C23.8015 29.327 23.981 29.4687 23.9715 29.8465Z" fill="white"/>
<path d="M28.5621 29.2325C28.1465 29.2137 28.2787 29.5442 28.2315 29.7992C28.3259 29.9315 28.1087 30.2715 28.496 30.2432C28.8832 30.2148 29.1477 30.1393 29.1382 29.7142C29.1288 29.2892 28.8643 29.242 28.5621 29.2325ZM28.5621 29.2325C28.1465 29.2137 28.2787 29.5442 28.2315 29.7992C28.3259 29.9315 28.1087 30.2715 28.496 30.2432C28.8832 30.2148 29.1477 30.1393 29.1382 29.7142C29.1288 29.2892 28.8643 29.242 28.5621 29.2325ZM28.5621 29.2325C28.1465 29.2137 28.2787 29.5442 28.2315 29.7992C28.3259 29.9315 28.1087 30.2715 28.496 30.2432C28.8832 30.2148 29.1477 30.1393 29.1382 29.7142C29.1288 29.2892 28.8643 29.242 28.5621 29.2325ZM35.9576 30.1771C35.8915 29.667 35.4192 29.1381 34.9942 29.0909H34.947C34.1725 29.0342 33.7097 29.5442 33.7097 30.4793C33.738 30.7343 33.6908 31.0366 33.8702 31.301C34.1819 31.7449 34.6919 31.9716 35.117 31.8299C35.7592 31.6127 36.0615 30.9988 35.9576 30.1771ZM35.9576 30.1771C35.8915 29.667 35.4192 29.1381 34.9942 29.0909H34.947C34.1725 29.0342 33.7097 29.5442 33.7097 30.4793C33.738 30.7343 33.6908 31.0366 33.8702 31.301C34.1819 31.7449 34.6919 31.9716 35.117 31.8299C35.7592 31.6127 36.0615 30.9988 35.9576 30.1771ZM28.5621 29.2325C28.1465 29.2137 28.2787 29.5442 28.2315 29.7992C28.3259 29.9315 28.1087 30.2715 28.496 30.2432C28.8832 30.2148 29.1477 30.1393 29.1382 29.7142C29.1288 29.2892 28.8643 29.242 28.5621 29.2325ZM28.5621 29.2325C28.1465 29.2137 28.2787 29.5442 28.2315 29.7992C28.3259 29.9315 28.1087 30.2715 28.496 30.2432C28.8832 30.2148 29.1477 30.1393 29.1382 29.7142C29.1288 29.2892 28.8643 29.242 28.5621 29.2325ZM35.9576 30.1771C35.8915 29.667 35.4192 29.1381 34.9942 29.0909H34.947C34.1725 29.0342 33.7097 29.5442 33.7097 30.4793C33.738 30.7343 33.6908 31.0366 33.8702 31.301C34.1819 31.7449 34.6919 31.9716 35.117 31.8299C35.7592 31.6127 36.0615 30.9988 35.9576 30.1771ZM35.9576 30.1771C35.8915 29.667 35.4192 29.1381 34.9942 29.0909H34.947C34.1725 29.0342 33.7097 29.5442 33.7097 30.4793C33.738 30.7343 33.6908 31.0366 33.8702 31.301C34.1819 31.7449 34.6919 31.9716 35.117 31.8299C35.7592 31.6127 36.0615 30.9988 35.9576 30.1771ZM28.5621 29.2325C28.1465 29.2137 28.2787 29.5442 28.2315 29.7992C28.3259 29.9315 28.1087 30.2715 28.496 30.2432C28.8832 30.2148 29.1477 30.1393 29.1382 29.7142C29.1288 29.2892 28.8643 29.242 28.5621 29.2325ZM61.1949 29.9031C61.1949 28.5808 61.1855 27.2585 61.1949 25.9362C61.1949 25.5962 61.0816 25.4073 60.7226 25.3695C60.0993 25.3034 59.4853 25.1806 58.862 25.1239C58.0025 25.0389 57.1524 24.9445 56.2929 24.8689C53.6388 24.6422 50.9847 24.7083 48.3212 24.8311C46.9706 24.8878 45.6294 25.02 44.2882 25.1239C43.3625 25.19 42.4369 25.2562 41.5208 25.3412C39.6128 25.5112 37.7144 25.719 35.8159 25.9456C33.3035 26.2384 30.7628 26.229 28.2409 26.4179C25.9836 26.5785 23.7167 26.3518 21.4594 26.2479C21.346 26.2479 21.2421 26.2101 21.1288 26.2007C20.0143 26.144 18.9186 25.889 17.8136 25.7662C17.5113 25.7379 17.3885 25.7756 17.398 26.1157C17.4106 28.7729 17.4137 31.4332 17.4074 34.0968C17.4074 34.4746 17.5963 34.654 17.9269 34.7013C19.1359 34.8713 20.3543 35.1168 21.5727 35.1641C23.8584 35.2585 26.1347 35.523 28.4487 35.2585C30.0638 35.0791 31.7167 35.1735 33.3413 35.0318C34.7486 34.909 36.1654 34.8052 37.5727 34.6729C39.15 34.5312 40.7274 34.3612 42.2952 34.1723C43.1264 34.0684 43.967 34.1345 44.7888 34.0212C46.1736 33.8411 47.5673 33.737 48.9635 33.7095C50.8808 33.6717 52.7982 33.5867 54.7156 33.6528C56.6329 33.719 58.6825 33.974 60.6565 34.2479C61.1099 34.314 61.2043 34.1912 61.2043 33.7756C61.1854 32.4817 61.1949 31.1877 61.1949 29.8937V29.9031ZM25.3885 29.9693C25.3543 30.3397 25.1941 30.6872 24.9345 30.9536C24.6749 31.2201 24.3317 31.3894 23.9623 31.4332C23.0556 31.5277 23.0556 31.5277 23.0556 32.4817C23.0556 33.2373 23.0084 33.3034 22.4416 33.3128C21.8749 33.3223 21.7994 33.2562 21.7899 32.6706C21.771 31.4427 21.8277 30.2148 21.7238 28.9964C21.7049 28.3069 21.7994 28.203 22.4983 28.2125C23.1973 28.2219 23.7167 28.118 24.3118 28.3541C24.9068 28.5903 25.4641 29.1948 25.3885 29.9693ZM31.0839 32.9822C31.0367 33.1239 30.8856 33.105 30.7628 33.1239C30.0072 33.2467 29.4216 33.02 29.0154 32.3305C28.8832 32.1039 28.6943 31.7072 28.4487 31.7922C28.2032 31.8772 28.3543 32.2928 28.3448 32.5667C28.3259 33.1334 28.2315 33.2278 27.6365 33.2373C27.0414 33.2467 27.0131 33.1523 27.0131 32.6044C27.0131 32.0566 27.0131 31.3105 27.0131 30.6682H26.9942C26.9942 29.9882 27.0036 29.3175 26.9942 28.6375C26.9847 28.3164 27.1264 28.1558 27.4381 28.1841C28.0426 28.2314 28.6282 27.948 29.261 28.1464C29.8938 28.3447 30.2527 28.5525 30.4228 29.1286C30.5928 29.7048 30.4889 30.3943 29.96 30.8477C29.6766 31.0932 29.6955 31.2255 29.9316 31.4805C30.1677 31.7355 30.6306 32.2833 30.98 32.6894C31.0272 32.7745 31.1217 32.8595 31.0839 32.9728V32.9822ZM34.7958 33.1239C33.3791 33.1239 32.3023 31.9905 32.2929 30.4793C32.2834 28.9681 33.3791 27.8347 34.8336 27.8347C36.2882 27.8347 37.4121 29.0625 37.4027 30.4982C37.3953 31.1898 37.1173 31.851 36.6282 32.34C36.1392 32.8291 35.478 33.1071 34.7864 33.1145L34.7958 33.1239ZM40.6896 32.595C40.4131 32.7638 40.0964 32.8554 39.7726 32.8604C39.4487 32.8654 39.1293 32.7835 38.8478 32.6233C38.4039 32.3872 38.64 32.0755 38.725 31.7733C38.81 31.471 38.9706 31.4144 39.2823 31.5183C39.7451 31.6788 39.9906 31.471 40.019 30.9704C40.0284 30.7626 40.019 30.5643 40.019 30.3565C40.0757 29.6765 39.8395 29.0153 39.849 28.3447C39.8584 27.6741 39.934 27.6835 40.7463 27.6552C41.2185 27.6363 41.1713 27.9763 41.1902 28.2691C41.2468 29.2231 41.313 30.1771 41.3507 31.1405C41.3696 31.7166 41.2374 32.2739 40.6801 32.5856L40.6896 32.595ZM45.7238 32.4439C45.0343 32.51 44.3448 32.5289 43.6553 32.5761C43.3248 32.595 43.1736 32.4439 43.1548 32.1039C43.0729 30.7878 42.9816 29.4718 42.8808 28.1558C42.8525 27.7308 42.9659 27.4946 43.4475 27.5135C43.9293 27.5324 44.4298 27.2774 44.836 27.353H45.3649C45.6483 27.3435 45.8655 27.4191 45.8938 27.7497C45.9222 28.0802 45.9599 28.3825 45.5349 28.5053C45.2751 28.5668 45.0085 28.5953 44.7415 28.5903C44.4771 28.5997 44.222 28.6092 44.2315 28.9775C44.2409 29.3459 44.5148 29.3364 44.7699 29.3364H45.3838C45.7238 29.3175 45.9127 29.4498 45.9127 29.8181C45.9127 30.1865 45.8655 30.4321 45.4121 30.4321C45.1666 30.4321 44.921 30.5171 44.6754 30.5643C44.4298 30.6115 44.3921 30.7815 44.4015 30.9893C44.4 31.0335 44.4079 31.0776 44.4247 31.1185C44.4415 31.1594 44.4668 31.1963 44.499 31.2267C44.5312 31.2571 44.5694 31.2802 44.6112 31.2947C44.6531 31.3091 44.6975 31.3145 44.7415 31.3105C45.0249 31.3105 45.3082 31.2916 45.5821 31.2632C45.8561 31.2349 46.0733 31.3482 46.0733 31.6694C46.0733 31.9905 46.2244 32.3966 45.7144 32.4439H45.7238ZM51.6837 31.7922C51.2788 32.0388 50.8051 32.1482 50.333 32.1039C48.6896 32.2266 47.4901 30.9232 47.4901 29.5537C47.4995 27.9102 49.2657 26.5312 50.8714 26.9468L51.0509 27.0035C51.7498 27.2018 51.8726 27.693 51.372 28.2219C51.2398 28.3636 51.0886 28.3164 50.9375 28.288C50.6011 28.1974 50.2475 28.1909 49.908 28.2691C49.228 28.4486 48.869 28.987 48.9352 29.7331C49.0013 30.4793 49.4735 30.8193 50.1725 30.8477C50.5021 30.8786 50.8341 30.8233 51.1359 30.6871C51.6742 30.4226 51.7026 30.9515 51.9009 31.2066C52.0993 31.4616 51.9198 31.6505 51.6837 31.7922ZM56.5857 27.2396C56.5573 27.6363 56.2551 27.693 55.9906 27.7119C55.5373 27.7402 55.4901 27.9386 55.5089 28.3541C55.5467 29.2703 55.7073 30.1676 55.7545 31.0743C55.7829 31.5844 55.5184 31.6883 55.1028 31.7166C54.6872 31.7449 54.4983 31.6222 54.47 31.1782C54.4039 30.2809 54.2716 29.3931 54.215 28.5053C54.1866 28.0425 54.0166 27.8724 53.5821 27.9291C53.1477 27.9858 52.9965 27.7969 52.9493 27.3813C52.9021 26.9657 53.0532 26.7296 53.4594 26.7201C54.2622 26.6824 55.065 26.654 55.6506 26.5124C56.4723 26.4935 56.6235 26.654 56.5857 27.2396ZM34.9942 29.0909H34.947C34.1725 29.0342 33.7097 29.5442 33.7097 30.4793C33.738 30.7343 33.6908 31.0366 33.8702 31.301C34.1819 31.7449 34.6919 31.9716 35.117 31.8299C35.7498 31.6127 36.0615 30.9988 35.9481 30.1771C35.8915 29.6576 35.4192 29.1381 34.9942 29.0909ZM28.5621 29.2325C28.1465 29.2137 28.2787 29.5442 28.2315 29.7992C28.3259 29.9315 28.1087 30.2715 28.496 30.2432C28.8832 30.2148 29.1477 30.1393 29.1382 29.7142C29.1288 29.2892 28.8643 29.242 28.5621 29.2325ZM28.5621 29.2325C28.1465 29.2137 28.2787 29.5442 28.2315 29.7992C28.3259 29.9315 28.1087 30.2715 28.496 30.2432C28.8832 30.2148 29.1477 30.1393 29.1382 29.7142C29.1288 29.2892 28.8643 29.242 28.5621 29.2325ZM35.9576 30.1771C35.8915 29.667 35.4192 29.1381 34.9942 29.0909H34.947C34.1725 29.0342 33.7097 29.5442 33.7097 30.4793C33.738 30.7343 33.6908 31.0366 33.8702 31.301C34.1819 31.7449 34.6919 31.9716 35.117 31.8299C35.7592 31.6127 36.0615 30.9988 35.9576 30.1771ZM35.9576 30.1771C35.8915 29.667 35.4192 29.1381 34.9942 29.0909H34.947C34.1725 29.0342 33.7097 29.5442 33.7097 30.4793C33.738 30.7343 33.6908 31.0366 33.8702 31.301C34.1819 31.7449 34.6919 31.9716 35.117 31.8299C35.7592 31.6127 36.0615 30.9988 35.9576 30.1771ZM28.5621 29.2325C28.1465 29.2137 28.2787 29.5442 28.2315 29.7992C28.3259 29.9315 28.1087 30.2715 28.496 30.2432C28.8832 30.2148 29.1477 30.1393 29.1382 29.7142C29.1288 29.2892 28.8643 29.242 28.5621 29.2325ZM28.5621 29.2325C28.1465 29.2137 28.2787 29.5442 28.2315 29.7992C28.3259 29.9315 28.1087 30.2715 28.496 30.2432C28.8832 30.2148 29.1477 30.1393 29.1382 29.7142C29.1288 29.2892 28.8643 29.242 28.5621 29.2325ZM35.9576 30.1771C35.8915 29.667 35.4192 29.1381 34.9942 29.0909H34.947C34.1725 29.0342 33.7097 29.5442 33.7097 30.4793C33.738 30.7343 33.6908 31.0366 33.8702 31.301C34.1819 31.7449 34.6919 31.9716 35.117 31.8299C35.7592 31.6127 36.0615 30.9988 35.9576 30.1771ZM35.9576 30.1771C35.8915 29.667 35.4192 29.1381 34.9942 29.0909H34.947C34.1725 29.0342 33.7097 29.5442 33.7097 30.4793C33.738 30.7343 33.6908 31.0366 33.8702 31.301C34.1819 31.7449 34.6919 31.9716 35.117 31.8299C35.7592 31.6127 36.0615 30.9988 35.9576 30.1771ZM28.5621 29.2325C28.1465 29.2137 28.2787 29.5442 28.2315 29.7992C28.3259 29.9315 28.1087 30.2715 28.496 30.2432C28.8832 30.2148 29.1477 30.1393 29.1382 29.7142C29.1288 29.2892 28.8643 29.242 28.5621 29.2325Z" fill="white"/>
<path d="M71.8678 38.6492C71.8678 39.0837 71.7167 39.301 71.3105 39.4426C69.941 39.9243 68.5431 40.0566 67.0886 39.9621C65.3884 39.8488 63.745 39.4237 62.0827 39.1121C60.8831 38.8948 59.6836 38.6681 58.4652 38.5548C57.2749 38.4546 56.0762 38.5439 54.9138 38.8193C54.8829 38.8325 54.8485 38.835 54.816 38.8264C54.7835 38.8179 54.7548 38.7987 54.7344 38.772C54.7533 38.5548 54.9516 38.4509 55.0838 38.2998C56.34 36.883 57.9646 36.0707 59.7686 35.6457C60.3974 35.5032 61.0462 35.4712 61.686 35.5513C62.2243 35.6174 62.3377 35.5607 62.3377 34.994C62.3377 33.6433 62.2999 32.2927 62.2905 30.9326C62.281 30.2714 62.3093 30.2526 62.9611 30.3848C64.5195 30.6776 66.0591 31.0365 67.6553 31.0743C68.8548 31.1026 70.0354 30.9893 71.1877 30.6304C71.2962 30.6076 71.4034 30.5792 71.5089 30.5454C71.7922 30.4226 71.8772 30.5454 71.8772 30.8098C71.8772 31.3104 71.8772 31.8204 71.8772 32.321C71.8583 34.4367 71.8489 36.543 71.8678 38.6492Z" fill="white"/>
<path d="M78.772 4.55264C78.7059 4.86433 78.6209 5.16658 78.5265 5.46882C78.3187 6.12053 77.9031 6.43222 77.2042 6.47C76.288 6.52667 75.8063 6.30943 75.5324 5.62939C75.2585 4.94934 75.1073 4.41097 74.909 3.80648C74.5973 2.86197 74.3423 2.64473 73.3694 2.72029C72.5666 2.77697 71.7638 2.79586 70.9609 2.79586C70.5926 2.79586 70.3942 2.92809 70.3092 3.31534C69.9692 4.75099 69.6009 6.1772 69.2514 7.61286C69.1192 8.16067 69.2136 8.23623 69.7614 8.28346C70.0582 8.31408 70.358 8.27638 70.638 8.17324C70.9179 8.0701 71.1706 7.90426 71.3765 7.68842C71.7921 7.28228 72.1794 6.8478 72.68 6.53612C72.9916 6.33777 73.3128 6.20554 73.7 6.23387C74.3895 6.2811 74.8145 6.8478 74.6445 7.50896C74.2919 8.86276 73.9362 10.2134 73.5772 11.5609C73.3789 12.3071 72.9444 12.7227 72.3116 12.7888C71.6788 12.8549 71.1782 12.4393 70.8948 11.8348C70.7909 11.6081 70.6493 11.3909 70.5454 11.1642C70.3376 10.7297 69.9881 10.5503 69.5253 10.5408C68.5997 10.5219 68.5052 10.5881 68.2219 11.7309C67.8346 13.2705 67.4757 14.81 67.1073 16.359C66.9562 16.9824 67.0318 17.0768 67.6835 17.0768H68.4391V17.0485C68.7413 17.0485 69.0341 17.058 69.3364 17.0485C69.7785 17.0375 70.2126 16.9274 70.6065 16.7263C71.0005 16.5252 71.3443 16.2384 71.6127 15.8868C72.1699 15.1878 72.765 14.5172 73.3694 13.8466C73.9739 13.176 74.399 12.921 75.1546 12.921C76.2219 12.921 76.6941 13.4688 76.4674 14.5172C76.3163 15.2256 76.1274 15.9151 75.9385 16.614C75.8157 17.0674 75.7307 17.5302 75.5702 17.9836C75.2301 18.9659 74.5029 19.457 73.5395 19.4665C71.7449 19.4853 69.9598 19.6742 68.1652 19.6931C65.4639 19.7215 62.7532 19.8632 60.0519 19.9576C59.5229 19.9765 58.9846 20.0521 58.4556 19.8915C57.9267 19.7309 57.7378 19.2964 58.0873 18.7959C58.1671 18.6596 58.2769 18.5433 58.4084 18.4558C59.4474 17.9175 59.8063 16.9541 60.0613 15.8962C60.4674 14.1866 60.9019 12.4865 61.3364 10.777C61.9125 8.46292 62.5076 6.15831 63.0648 3.83482C63.216 3.22088 63.1687 2.60695 62.7815 2.0308C62.2053 1.1713 62.3942 0.736824 63.386 0.472361C63.5834 0.418783 63.7861 0.387109 63.9905 0.37791L69.0908 0.245678C71.7354 0.170118 74.399 0.0756667 77.053 0.00010585C77.4466 -0.0099272 77.8399 0.0281349 78.2242 0.113447C78.9232 0.264569 79.3199 0.82183 79.3482 1.5491C79.386 2.59751 78.9798 3.56091 78.772 4.55264Z" fill="white"/>
</g>
<defs>
<clipPath id="clip0_817_137">
<rect width="79.3483" height="40" fill="white"/>
</clipPath>
</defs>
</svg>
